<?xml version="1.0" encoding="UTF-8"?><svg width="143.933mm" height="50.5354mm" viewBox="0 0 544 191" xmlns="http://www.w3.org/2000/svg" xmlns:xlink="http://www.w3.org/1999/xlink"><g fill="none" stroke="black" stroke-width="1" fill-rule="evenodd" stroke-linecap="square" stroke-linejoin="bevel"><g clip-path="none" fill="#ffffff" fill-opacity="1" opacity="1" stroke="none" stroke-opacity="0" transform="matrix(1,0,0,1,0,0)"><path d="M0,0 L543.953,0 L543.953,191 L0,191 L0,0 z" fill-rule="evenodd" vector-effect="none"/></g><defs><clipPath id="clip3"><path d="M-302,-35 L241.953,-35 L241.953,156 L-302,156 L-302,-35 z"/></clipPath></defs><g clip-path="url(#clip3)" fill="#ffffff" fill-opacity="1" opacity="1" stroke="none" stroke-opacity="0" transform="matrix(1,0,0,1,302,35)"><path d="M0,0 L60,0 L60,34 L0,34 L0,0 z" fill-rule="evenodd" vector-effect="none"/></g><defs><clipPath id="clip7"><path d="M0,0 L61,0 L61,35 L0,35 L0,0 z"/></clipPath></defs><g clip-path="url(#clip7)" fill="none" opacity="1" stroke="none" stroke-opacity="0" transform="matrix(1,0,0,1,302.375,35)"><path d="M0,0 L61,0 L61,35 L0,35 L0,0 z" fill-rule="evenodd" vector-effect="none"/></g><defs><clipPath id="clip18"><path d="M-33,-15 L38,-15 L38,20 L-33,20 L-33,-15 z"/></clipPath></defs><g clip-path="url(#clip18)" fill="#000000" fill-opacity="1" opacity="1" stroke="none" stroke-opacity="0" transform="matrix(0.7,0,0,0.7,330.875,50.5)"><path d="M-27.1875,-11.2344 C-27.1875,-11.5625 -27.4844,-11.875 -27.8125,-11.875 C-28.1719,-11.875 -28.4688,-11.6094 -28.4688,-11.25 C-28.4688,-10.8906 -28.1875,-10.6094 -27.8281,-10.6094 C-27.4844,-10.6094 -27.1875,-10.8906 -27.1875,-11.2344 z" fill-rule="nonzero" vector-effect="none"/></g><defs><clipPath id="clip19"><path d="M-33,-15 L38,-15 L38,20 L-33,20 L-33,-15 z"/></clipPath></defs><g clip-path="url(#clip19)" fill="#000000" fill-opacity="1" opacity="1" stroke="none" stroke-opacity="0" transform="matrix(0.7,0,0,0.7,330.875,50.5)"><path d="M-28.2031,-7.60938 C-28.375,-8.5 -28.5312,-8.73438 -28.8594,-8.73438 C-29.1562,-8.73438 -29.5938,-8.64062 -30.3906,-8.35938 L-30.5312,-8.29688 L-30.4844,-8.09375 L-30.25,-8.15625 C-30,-8.21875 -29.8438,-8.25 -29.75,-8.25 C-29.4219,-8.25 -29.3281,-8.14062 -29.1562,-7.375 L-28.7812,-5.75 L-29.8438,-4.25 C-30.125,-3.85938 -30.375,-3.60938 -30.5156,-3.60938 C-30.5938,-3.60938 -30.7188,-3.65625 -30.8594,-3.73438 C-31.0156,-3.8125 -31.1562,-3.875 -31.2656,-3.875 C-31.5312,-3.875 -31.7031,-3.65625 -31.7031,-3.40625 C-31.7031,-3.0625 -31.4688,-2.85938 -31.0625,-2.85938 C-30.6562,-2.85938 -30.3906,-2.96875 -29.8281,-3.73438 L-28.6875,-5.28125 L-28.2969,-3.73438 C-28.1406,-3.09375 -27.9531,-2.85938 -27.5312,-2.85938 C-27.0469,-2.85938 -26.7031,-3.17188 -25.9531,-4.34375 L-26.1406,-4.45312 C-26.25,-4.32812 -26.2969,-4.25 -26.4219,-4.09375 C-26.7188,-3.70312 -26.8594,-3.57812 -27.0312,-3.57812 C-27.2188,-3.57812 -27.3281,-3.73438 -27.4219,-4.10938 L-27.8438,-5.84375 C-27.9219,-6.15625 -27.9375,-6.34375 -27.9375,-6.4375 C-27.375,-7.4375 -26.9062,-8 -26.6719,-8 C-26.3594,-8 -26.2344,-7.78125 -25.9844,-7.78125 C-25.7344,-7.78125 -25.5469,-7.98438 -25.5469,-8.25 C-25.5469,-8.53125 -25.7656,-8.73438 -26.0781,-8.73438 C-26.6562,-8.73438 -27.1406,-8.26562 -28.0469,-6.875 L-28.2031,-7.60938 z" fill-rule="nonzero" vector-effect="none"/></g><defs><clipPath id="clip20"><path d="M-33,-15 L38,-15 L38,20 L-33,20 L-33,-15 z"/></clipPath></defs><g clip-path="url(#clip20)" fill="#000000" fill-opacity="1" opacity="1" stroke="none" stroke-opacity="0" transform="matrix(0.7,0,0,0.7,330.875,50.5)"><path d="M-13.7031,-7.15625 L-13.7031,-8.01562 L-21.3594,-8.01562 L-21.3594,-7.15625 L-13.7031,-7.15625 M-13.7031,-4.5625 L-13.7031,-5.42188 L-21.3594,-5.42188 L-21.3594,-4.5625 L-13.7031,-4.5625" fill-rule="nonzero" vector-effect="none"/></g><defs><clipPath id="clip21"><path d="M-33,-15 L38,-15 L38,20 L-33,20 L-33,-15 z"/></clipPath></defs><g clip-path="url(#clip21)" fill="#000000" fill-opacity="1" opacity="1" stroke="none" stroke-opacity="0" transform="matrix(0.7,0,0,0.7,330.875,50.5)"><path d="M-0.859375,-2.98438 L-0.859375,-3.1875 C-1.54688,-3.25 -1.6875,-3.39062 -1.875,-4.48438 L-3.0625,-11.6875 L-3.40625,-11.6875 L-7.10938,-5.21875 C-8.07812,-3.53125 -8.25,-3.3125 -8.84375,-3.1875 L-8.84375,-2.98438 L-6.4375,-2.98438 L-6.4375,-3.1875 C-7.04688,-3.21875 -7.23438,-3.375 -7.23438,-3.625 C-7.23438,-3.82812 -7.14062,-4.14062 -6.95312,-4.48438 L-6.1875,-5.92188 L-3.32812,-5.92188 L-3.0625,-4.21875 C-3.04688,-4.10938 -3.04688,-3.98438 -3.04688,-3.89062 C-3.04688,-3.4375 -3.21875,-3.23438 -4.04688,-3.1875 L-4.04688,-2.98438 L-0.859375,-2.98438 M-3.39062,-6.39062 L-5.90625,-6.39062 L-3.96875,-9.82812 L-3.39062,-6.39062" fill-rule="nonzero" vector-effect="none"/></g><defs><clipPath id="clip22"><path d="M-33,-15 L38,-15 L38,20 L-33,20 L-33,-15 z"/></clipPath></defs><g clip-path="url(#clip22)" fill="#000000" fill-opacity="1" opacity="1" stroke="none" stroke-opacity="0" transform="matrix(0.7,0,0,0.7,330.875,50.5)"><path d="M2.90625,-7.60938 C2.73438,-8.5 2.57812,-8.73438 2.25,-8.73438 C1.95312,-8.73438 1.51562,-8.64062 0.71875,-8.35938 L0.578125,-8.29688 L0.625,-8.09375 L0.859375,-8.15625 C1.10938,-8.21875 1.26562,-8.25 1.35938,-8.25 C1.6875,-8.25 1.78125,-8.14062 1.95312,-7.375 L2.32812,-5.75 L1.26562,-4.25 C0.984375,-3.85938 0.734375,-3.60938 0.59375,-3.60938 C0.515625,-3.60938 0.390625,-3.65625 0.25,-3.73438 C0.09375,-3.8125 -0.046875,-3.875 -0.15625,-3.875 C-0.421875,-3.875 -0.59375,-3.65625 -0.59375,-3.40625 C-0.59375,-3.0625 -0.359375,-2.85938 0.046875,-2.85938 C0.453125,-2.85938 0.71875,-2.96875 1.28125,-3.73438 L2.42188,-5.28125 L2.8125,-3.73438 C2.96875,-3.09375 3.15625,-2.85938 3.57812,-2.85938 C4.0625,-2.85938 4.40625,-3.17188 5.15625,-4.34375 L4.96875,-4.45312 C4.85938,-4.32812 4.8125,-4.25 4.6875,-4.09375 C4.39062,-3.70312 4.25,-3.57812 4.07812,-3.57812 C3.89062,-3.57812 3.78125,-3.73438 3.6875,-4.10938 L3.26562,-5.84375 C3.1875,-6.15625 3.17188,-6.34375 3.17188,-6.4375 C3.73438,-7.4375 4.20312,-8 4.4375,-8 C4.75,-8 4.875,-7.78125 5.125,-7.78125 C5.375,-7.78125 5.5625,-7.98438 5.5625,-8.25 C5.5625,-8.53125 5.34375,-8.73438 5.03125,-8.73438 C4.45312,-8.73438 3.96875,-8.26562 3.0625,-6.875 L2.90625,-7.60938 z" fill-rule="nonzero" vector-effect="none"/></g><defs><clipPath id="clip23"><path d="M-33,-15 L38,-15 L38,20 L-33,20 L-33,-15 z"/></clipPath></defs><g clip-path="url(#clip23)" fill="#000000" fill-opacity="1" opacity="1" stroke="none" stroke-opacity="0" transform="matrix(0.7,0,0,0.7,330.875,50.5)"><path d="M16.6562,-5.85938 L16.6562,-6.71875 L13.2656,-6.71875 L13.2656,-10.1094 L12.4062,-10.1094 L12.4062,-6.71875 L9.01562,-6.71875 L9.01562,-5.85938 L12.4062,-5.85938 L12.4062,-2.46875 L13.2656,-2.46875 L13.2656,-5.85938 L16.6562,-5.85938 z" fill-rule="nonzero" vector-effect="none"/></g><defs><clipPath id="clip24"><path d="M-33,-15 L38,-15 L38,20 L-33,20 L-33,-15 z"/></clipPath></defs><g clip-path="url(#clip24)" fill="#000000" fill-opacity="1" opacity="1" stroke="none" stroke-opacity="0" transform="matrix(0.7,0,0,0.7,330.875,50.5)"><path d="M22.5,-11.5 L22.5,-11.2969 C23.3281,-11.2344 23.5,-11.1406 23.5,-10.7656 C23.5,-10.5625 23.4531,-10.25 23.3594,-9.92188 L21.7812,-4.23438 C21.5625,-3.42188 21.4219,-3.29688 20.7031,-3.1875 L20.7031,-2.98438 L24.25,-2.98438 C26.3438,-2.98438 27.8125,-3.84375 27.8125,-5.59375 C27.8125,-6.51562 27.2969,-7.21875 26.1875,-7.54688 L26.1875,-7.5625 C26.7344,-7.6875 27.2188,-7.79688 27.625,-8.07812 C28.0938,-8.39062 28.4531,-8.84375 28.4531,-9.54688 C28.4531,-10.8438 27.5625,-11.5 25.75,-11.5 L22.5,-11.5 M24.0312,-7.71875 L24.8594,-10.6406 C24.9844,-11.1094 25.1094,-11.1094 25.625,-11.1094 C26.6719,-11.1094 27.1406,-10.6719 27.1406,-9.70312 C27.1406,-8.40625 26.2344,-7.71875 24.5312,-7.71875 L24.0312,-7.71875 M23.9062,-7.29688 C24.7188,-7.29688 25.2812,-7.23438 25.5469,-7.14062 C26.0312,-6.98438 26.4219,-6.40625 26.4219,-5.59375 C26.4219,-4.14062 25.4062,-3.375 23.9062,-3.375 C23.3594,-3.375 23.0312,-3.5625 23.0312,-3.92188 C23.0312,-4.09375 23.2344,-4.76562 23.4844,-5.75 L23.9062,-7.29688" fill-rule="nonzero" vector-effect="none"/></g><defs><clipPath id="clip25"><path d="M-33,-15 L38,-15 L38,20 L-33,20 L-33,-15 z"/></clipPath></defs><g clip-path="url(#clip25)" fill="#000000" fill-opacity="1" opacity="1" stroke="none" stroke-opacity="0" transform="matrix(0.7,0,0,0.7,330.875,50.5)"><path d="M34.75,-4.54688 C34.0781,-3.67188 33.875,-3.5 33.6719,-3.5 C33.5781,-3.5 33.5156,-3.57812 33.5156,-3.71875 C33.5156,-3.875 33.7031,-4.48438 33.7656,-4.73438 L34.7969,-8.60938 L33.8281,-8.60938 C33.2031,-6.875 33.0156,-6.375 32.4062,-5.45312 C31.5938,-4.23438 31,-3.54688 30.5625,-3.54688 C30.3594,-3.54688 30.2969,-3.67188 30.2969,-3.875 C30.2969,-3.92188 30.3281,-4.04688 30.3438,-4.07812 L31.5,-8.6875 L31.4375,-8.73438 C30.7031,-8.5625 30.2344,-8.46875 29.4844,-8.375 L29.4844,-8.20312 C29.9844,-8.20312 30.0312,-8.1875 30.1406,-8.125 C30.2188,-8.07812 30.2812,-7.98438 30.2812,-7.89062 C30.2812,-7.78125 30.2031,-7.45312 30.1094,-7.01562 L29.6406,-5.20312 C29.4062,-4.26562 29.2969,-3.79688 29.2969,-3.54688 C29.2969,-3.0625 29.5312,-2.85938 29.9844,-2.85938 C30.9062,-2.85938 31.5625,-3.54688 33.0938,-6.0625 C32.6719,-4.67188 32.5,-3.79688 32.5,-3.5 C32.5,-3.10938 32.7344,-2.89062 33.125,-2.89062 C33.75,-2.89062 34.0781,-3.14062 34.9219,-4.4375 L34.75,-4.54688 z" fill-rule="nonzero" vector-effect="none"/></g><defs><clipPath id="clip26"><path d="M-33,-15 L38,-15 L38,20 L-33,20 L-33,-15 z"/></clipPath></defs><g clip-path="url(#clip26)" fill="#000000" fill-opacity="1" opacity="1" stroke="none" stroke-opacity="0" transform="matrix(0.7,0,0,0.7,330.875,50.5)"><path d="M-27.9375,13.5781 C-28.1562,12.4219 -28.8438,10.2656 -29.0469,10.2656 L-29.0938,10.2656 C-29.7969,10.375 -30.2188,10.4531 -30.4844,10.5 C-30.6094,10.5312 -30.75,10.5469 -30.9062,10.5781 L-30.9062,10.7969 C-30.75,10.7656 -30.6406,10.75 -30.5,10.75 C-29.9688,10.75 -29.7344,10.9375 -29.5,11.5781 C-29.1406,12.4688 -28.4219,15.375 -28.4219,15.8906 C-28.4219,16.0312 -28.4844,16.1875 -28.5625,16.3438 C-28.6562,16.5156 -29.25,17.2812 -29.4844,17.5312 C-29.7812,17.8594 -29.9375,17.9688 -30.1094,17.9688 C-30.4375,17.9688 -30.4375,17.5938 -30.9062,17.5938 C-31.1875,17.5938 -31.4062,17.8281 -31.4062,18.125 C-31.4062,18.4531 -31.125,18.6719 -30.75,18.6719 C-30,18.6719 -28.6094,17.1875 -27.2656,14.9531 C-26.1719,13.1562 -25.5625,11.7188 -25.5625,10.9844 C-25.5625,10.5938 -25.8438,10.2656 -26.2344,10.2656 C-26.5312,10.2656 -26.75,10.4688 -26.75,10.75 C-26.75,10.9531 -26.6719,11.0781 -26.4062,11.25 C-26.1719,11.4062 -26.0781,11.4844 -26.0781,11.6719 C-26.0781,12.25 -26.5625,13.1719 -27.6562,15.0156 L-27.9375,13.5781 z" fill-rule="nonzero" vector-effect="none"/></g><defs><clipPath id="clip27"><path d="M-33,-15 L38,-15 L38,20 L-33,20 L-33,-15 z"/></clipPath></defs><g clip-path="url(#clip27)" fill="#000000" fill-opacity="1" opacity="1" stroke="none" stroke-opacity="0" transform="matrix(0.7,0,0,0.7,330.875,50.5)"><path d="M-13.4375,11.8438 L-13.4375,10.9844 L-21.0938,10.9844 L-21.0938,11.8438 L-13.4375,11.8438 M-13.4375,14.4375 L-13.4375,13.5781 L-21.0938,13.5781 L-21.0938,14.4375 L-13.4375,14.4375" fill-rule="nonzero" vector-effect="none"/></g><defs><clipPath id="clip28"><path d="M-33,-15 L38,-15 L38,20 L-33,20 L-33,-15 z"/></clipPath></defs><g clip-path="url(#clip28)" fill="#000000" fill-opacity="1" opacity="1" stroke="none" stroke-opacity="0" transform="matrix(0.7,0,0,0.7,330.875,50.5)"><path d="M-0.265625,7.375 L-0.53125,7.375 C-0.640625,7.57812 -0.765625,7.65625 -1.03125,7.65625 C-1.14062,7.65625 -1.29688,7.65625 -1.5625,7.5625 C-2.10938,7.375 -2.65625,7.34375 -3.07812,7.34375 C-4.10938,7.34375 -5.09375,7.6875 -5.92188,8.29688 C-7.35938,9.3125 -8.35938,11 -8.35938,12.8438 C-8.35938,14.9844 -6.95312,16.2344 -4.96875,16.2344 C-3.625,16.2344 -2.59375,15.6719 -1.42188,14.2969 L-1.65625,14.1094 C-2.78125,15.2656 -3.5625,15.6562 -4.625,15.6562 C-6.07812,15.6562 -6.90625,14.7969 -6.90625,12.9844 C-6.90625,11.5469 -6.4375,10.0781 -5.5,9.07812 C-4.78125,8.29688 -3.875,7.8125 -2.90625,7.8125 C-1.76562,7.8125 -1.125,8.53125 -0.96875,9.92188 L-0.75,9.96875 L-0.265625,7.375 z" fill-rule="nonzero" vector-effect="none"/></g><defs><clipPath id="clip29"><path d="M-33,-15 L38,-15 L38,20 L-33,20 L-33,-15 z"/></clipPath></defs><g clip-path="url(#clip29)" fill="#000000" fill-opacity="1" opacity="1" stroke="none" stroke-opacity="0" transform="matrix(0.7,0,0,0.7,330.875,50.5)"><path d="M2.59375,11.3906 C2.42188,10.5 2.26562,10.2656 1.9375,10.2656 C1.64062,10.2656 1.20312,10.3594 0.40625,10.6406 L0.265625,10.7031 L0.3125,10.9062 L0.546875,10.8438 C0.796875,10.7812 0.953125,10.75 1.04688,10.75 C1.375,10.75 1.46875,10.8594 1.64062,11.625 L2.01562,13.25 L0.953125,14.75 C0.671875,15.1406 0.421875,15.3906 0.28125,15.3906 C0.203125,15.3906 0.078125,15.3438 -0.0625,15.2656 C-0.21875,15.1875 -0.359375,15.125 -0.46875,15.125 C-0.734375,15.125 -0.90625,15.3438 -0.90625,15.5938 C-0.90625,15.9375 -0.671875,16.1406 -0.265625,16.1406 C0.140625,16.1406 0.40625,16.0312 0.96875,15.2656 L2.10938,13.7188 L2.5,15.2656 C2.65625,15.9062 2.84375,16.1406 3.26562,16.1406 C3.75,16.1406 4.09375,15.8281 4.84375,14.6562 L4.65625,14.5469 C4.54688,14.6719 4.5,14.75 4.375,14.9062 C4.07812,15.2969 3.9375,15.4219 3.76562,15.4219 C3.57812,15.4219 3.46875,15.2656 3.375,14.8906 L2.95312,13.1562 C2.875,12.8438 2.85938,12.6562 2.85938,12.5625 C3.42188,11.5625 3.89062,11 4.125,11 C4.4375,11 4.5625,11.2188 4.8125,11.2188 C5.0625,11.2188 5.25,11.0156 5.25,10.75 C5.25,10.4688 5.03125,10.2656 4.71875,10.2656 C4.14062,10.2656 3.65625,10.7344 2.75,12.125 L2.59375,11.3906 z" fill-rule="nonzero" vector-effect="none"/></g><defs><clipPath id="clip30"><path d="M-33,-15 L38,-15 L38,20 L-33,20 L-33,-15 z"/></clipPath></defs><g clip-path="url(#clip30)" fill="#000000" fill-opacity="1" opacity="1" stroke="none" stroke-opacity="0" transform="matrix(0.7,0,0,0.7,330.875,50.5)"><path d="M16.3438,13.1406 L16.3438,12.2812 L12.9531,12.2812 L12.9531,8.89062 L12.0938,8.89062 L12.0938,12.2812 L8.70312,12.2812 L8.70312,13.1406 L12.0938,13.1406 L12.0938,16.5312 L12.9531,16.5312 L12.9531,13.1406 L16.3438,13.1406 z" fill-rule="nonzero" vector-effect="none"/></g><defs><clipPath id="clip31"><path d="M-33,-15 L38,-15 L38,20 L-33,20 L-33,-15 z"/></clipPath></defs><g clip-path="url(#clip31)" fill="#000000" fill-opacity="1" opacity="1" stroke="none" stroke-opacity="0" transform="matrix(0.7,0,0,0.7,330.875,50.5)"><path d="M22.2031,7.5 L22.2031,7.70312 C23,7.73438 23.1875,7.89062 23.1875,8.23438 C23.1875,8.4375 23.1406,8.6875 23.0469,9.01562 L21.4688,14.8125 C21.25,15.5781 21.125,15.6719 20.3906,15.8125 L20.3906,16.0156 L23.7344,16.0156 C25.2656,16.0156 26.5781,15.6719 27.5156,14.9375 C28.7969,13.9375 29.5938,12.625 29.5938,11 C29.5938,8.71875 28.0781,7.5 25.7969,7.5 L22.2031,7.5 M24.5312,8.39062 C24.6562,7.9375 24.9531,7.89062 25.4375,7.89062 C26.1875,7.89062 26.7344,8.04688 27.1406,8.34375 C27.7812,8.82812 28.1562,9.65625 28.1562,10.6875 C28.1562,12.0156 27.6562,13.5469 26.7344,14.4531 C25.9219,15.2344 24.9062,15.625 23.5938,15.625 C23,15.625 22.7031,15.4844 22.7031,15.1406 C22.7031,14.9688 22.7812,14.7031 23,13.9062 L24.5312,8.39062" fill-rule="nonzero" vector-effect="none"/></g><defs><clipPath id="clip32"><path d="M-33,-15 L38,-15 L38,20 L-33,20 L-33,-15 z"/></clipPath></defs><g clip-path="url(#clip32)" fill="#000000" fill-opacity="1" opacity="1" stroke="none" stroke-opacity="0" transform="matrix(0.7,0,0,0.7,330.875,50.5)"><path d="M35.875,14.4531 C35.2031,15.3281 35,15.5 34.7969,15.5 C34.7031,15.5 34.6406,15.4219 34.6406,15.2812 C34.6406,15.125 34.8281,14.5156 34.8906,14.2656 L35.9219,10.3906 L34.9531,10.3906 C34.3281,12.125 34.1406,12.625 33.5312,13.5469 C32.7188,14.7656 32.125,15.4531 31.6875,15.4531 C31.4844,15.4531 31.4219,15.3281 31.4219,15.125 C31.4219,15.0781 31.4531,14.9531 31.4688,14.9219 L32.625,10.3125 L32.5625,10.2656 C31.8281,10.4375 31.3594,10.5312 30.6094,10.625 L30.6094,10.7969 C31.1094,10.7969 31.1562,10.8125 31.2656,10.875 C31.3438,10.9219 31.4062,11.0156 31.4062,11.1094 C31.4062,11.2188 31.3281,11.5469 31.2344,11.9844 L30.7656,13.7969 C30.5312,14.7344 30.4219,15.2031 30.4219,15.4531 C30.4219,15.9375 30.6562,16.1406 31.1094,16.1406 C32.0312,16.1406 32.6875,15.4531 34.2188,12.9375 C33.7969,14.3281 33.625,15.2031 33.625,15.5 C33.625,15.8906 33.8594,16.1094 34.25,16.1094 C34.875,16.1094 35.2031,15.8594 36.0469,14.5625 L35.875,14.4531 z" fill-rule="nonzero" vector-effect="none"/></g><defs><clipPath id="clip55"><path d="M-302.5,-35.5 L241.453,-35.5 L241.453,155.5 L-302.5,155.5 L-302.5,-35.5 z"/></clipPath></defs><g clip-path="url(#clip55)" fill="none" opacity="1" stroke="#000000" stroke-linecap="butt" stroke-linejoin="miter" stroke-miterlimit="2" stroke-opacity="1" stroke-width="1" transform="matrix(1,0,0,1,302.5,35.5)"><path d="M0,0 L60,0 L60,34 L0,34 L0,0 z" fill-rule="evenodd" vector-effect="none"/></g><defs><clipPath id="clip61"><path d="M0,0 L46,0 L46,15 L0,15 L0,0 z"/></clipPath></defs><g clip-path="url(#clip61)" fill="none" opacity="1" stroke="#000000" stroke-linecap="square" stroke-linejoin="bevel" stroke-opacity="1" stroke-width="1" transform="matrix(1,0,0,1,309.195,71)"><text fill="#000000" fill-opacity="1" font-family="Liberation Sans" font-size="10" font-style="normal" font-weight="400" stroke="none" textLength="44.3594" x="1" xml:space="preserve" y="11">Lin_furuta</text></g><defs><clipPath id="clip69"><path d="M-72,-52 L471.953,-52 L471.953,139 L-72,139 L-72,-52 z"/></clipPath></defs><g clip-path="url(#clip69)" fill="#ffffff" fill-opacity="1" opacity="1" stroke="none" stroke-opacity="0" transform="matrix(1,0,0,1,72,52)"><path d="M20,10 C20,15.5228 15.5228,20 10,20 C4.47715,20 0,15.5228 0,10 C0,4.47715 4.47715,0 10,0 C15.5228,0 20,4.47715 20,10 z" fill-rule="nonzero" vector-effect="none"/></g><defs><clipPath id="clip73"><path d="M-5,-10 L15,-10 L15,10 L-5,10 L-5,-10 z"/></clipPath></defs><g clip-path="url(#clip73)" fill="none" opacity="1" stroke="#000000" stroke-linecap="butt" stroke-linejoin="miter" stroke-miterlimit="2" stroke-opacity="1" stroke-width="1" transform="matrix(1,0,0,1,77,62)"><text fill="#000000" fill-opacity="1" font-family="Liberation Sans" font-size="10" font-style="normal" font-weight="400" stroke="none" textLength="5.82812" x="-2.90625" xml:space="preserve" y="3.5">+</text></g><defs><clipPath id="clip74"><path d="M-10,-15 L10,-15 L10,5 L-10,5 L-10,-15 z"/></clipPath></defs><g clip-path="url(#clip74)" fill="none" opacity="1" stroke="#000000" stroke-linecap="butt" stroke-linejoin="miter" stroke-miterlimit="2" stroke-opacity="1" stroke-width="1" transform="matrix(1,0,0,1,82,67)"><text fill="#000000" fill-opacity="1" font-family="Liberation Sans" font-size="10" font-style="normal" font-weight="400" stroke="none" textLength="5.82812" x="-2.90625" xml:space="preserve" y="3.5">−</text></g><defs><clipPath id="clip79"><path d="M-72.5,-52.5 L471.453,-52.5 L471.453,138.5 L-72.5,138.5 L-72.5,-52.5 z"/></clipPath></defs><g clip-path="url(#clip79)" fill="none" opacity="1" stroke="#000000" stroke-linecap="butt" stroke-linejoin="miter" stroke-miterlimit="2" stroke-opacity="1" stroke-width="1" transform="matrix(1,0,0,1,72.5,52.5)"><path d="M20,10 C20,15.5228 15.5228,20 10,20 C4.47715,20 0,15.5228 0,10 C0,4.47715 4.47715,0 10,0 C15.5228,0 20,4.47715 20,10 z" fill-rule="nonzero" vector-effect="none"/></g><defs><clipPath id="clip82"><path d="M-117,-36 L426.953,-36 L426.953,155 L-117,155 L-117,-36 z"/></clipPath></defs><g clip-path="url(#clip82)" fill="#ffffff" fill-opacity="1" opacity="1" stroke="none" stroke-opacity="0" transform="matrix(1,0,0,1,117,36)"><path d="M0,0 L50,26 L0,52 L0,0 z" fill-rule="nonzero" vector-effect="none"/></g><defs><clipPath id="clip86"><path d="M0,0 L50,0 L50,52 L0,52 L0,0 z"/></clipPath></defs><g clip-path="url(#clip86)" fill="none" opacity="1" stroke="none" stroke-opacity="0" transform="matrix(1,0,0,1,117.375,36)"><path d="M0,0 L50,26 L0,52 L0,0 z" fill-rule="nonzero" vector-effect="none"/></g><defs><clipPath id="clip96"><path d="M-4,-2 L39,-2 L39,32 L-4,32 L-4,-2 z"/></clipPath></defs><g clip-path="url(#clip96)" fill="#000000" fill-opacity="1" opacity="1" stroke="none" stroke-opacity="0" transform="matrix(1,0,0,1,121.125,47.5)"><path d="M-1.71875,10.7031 L-0.734375,10.7031 L-0.734375,13.7969 L2.53125,10.7031 L3.8125,10.7031 L0.1875,14.1094 L4.0625,18 L2.76562,18 L-0.734375,14.4844 L-0.734375,18 L-1.71875,18 L-1.71875,10.7031 M8.54688,11.9062 L6.79688,12.8594 L8.54688,13.8125 L8.26562,14.2812 L6.625,13.2969 L6.625,15.1406 L6.0625,15.1406 L6.0625,13.2969 L4.42188,14.2812 L4.14062,13.8125 L5.89062,12.8594 L4.14062,11.9062 L4.42188,11.4219 L6.0625,12.4219 L6.0625,10.5781 L6.625,10.5781 L6.625,12.4219 L8.26562,11.4219 L8.54688,11.9062 M9.6875,15.8438 L9.6875,12.5312 L10.5938,12.5312 L10.5938,15.8125 C10.5938,16.3229 10.6953,16.7083 10.8984,16.9688 C11.1016,17.2292 11.401,17.3594 11.7969,17.3594 C12.2865,17.3594 12.6719,17.2057 12.9531,16.8984 C13.2344,16.5911 13.375,16.1667 13.375,15.625 L13.375,12.5312 L14.2812,12.5312 L14.2812,18 L13.375,18 L13.375,17.1562 C13.1562,17.4896 12.9036,17.737 12.6172,17.8984 C12.3307,18.0599 11.9948,18.1406 11.6094,18.1406 C10.9844,18.1406 10.5078,17.9453 10.1797,17.5547 C9.85156,17.1641 9.6875,16.5938 9.6875,15.8438 M15.4688,12.5312 L16.4219,12.5312 L18.125,17.125 L19.8438,12.5312 L20.7969,12.5312 L18.7344,18 L17.5156,18 L15.4688,12.5312 M26.7031,15.0469 L26.7031,15.4844 L22.5625,15.4844 C22.6042,16.099 22.7917,16.5677 23.125,16.8906 C23.4583,17.2135 23.9219,17.375 24.5156,17.375 C24.8594,17.375 25.1953,17.3333 25.5234,17.25 C25.8516,17.1667 26.1719,17.0417 26.4844,16.875 L26.4844,17.7188 C26.1615,17.8542 25.8307,17.9583 25.4922,18.0312 C25.1536,18.1042 24.8125,18.1406 24.4688,18.1406 C23.5938,18.1406 22.901,17.888 22.3906,17.3828 C21.8802,16.8776 21.625,16.1875 21.625,15.3125 C21.625,14.4167 21.8672,13.7083 22.3516,13.1875 C22.8359,12.6667 23.4896,12.4062 24.3125,12.4062 C25.0521,12.4062 25.6354,12.6406 26.0625,13.1094 C26.4896,13.5781 26.7031,14.224 26.7031,15.0469 M25.7969,14.7812 C25.7969,14.2917 25.6615,13.8984 25.3906,13.6016 C25.1198,13.3047 24.7656,13.1562 24.3281,13.1562 C23.8177,13.1562 23.4141,13.2995 23.1172,13.5859 C22.8203,13.8724 22.6458,14.2708 22.5938,14.7812 L25.7969,14.7812 M32.0938,12.7344 L32.0938,13.5781 C31.8438,13.4427 31.5911,13.3385 31.3359,13.2656 C31.0807,13.1927 30.8229,13.1562 30.5625,13.1562 C29.9792,13.1562 29.526,13.3411 29.2031,13.7109 C28.8802,14.0807 28.7188,14.599 28.7188,15.2656 C28.7188,15.9323 28.8802,16.4505 29.2031,16.8203 C29.526,17.1901 29.9792,17.375 30.5625,17.375 C30.8229,17.375 31.0807,17.3411 31.3359,17.2734 C31.5911,17.2057 31.8438,17.099 32.0938,16.9531 L32.0938,17.7969 C31.8438,17.9115 31.5859,17.9974 31.3203,18.0547 C31.0547,18.112 30.7708,18.1406 30.4688,18.1406 C29.6354,18.1406 28.9766,17.8828 28.4922,17.3672 C28.0078,16.8516 27.7656,16.151 27.7656,15.2656 C27.7656,14.3802 28.0104,13.6823 28.5,13.1719 C28.9896,12.6615 29.6615,12.4062 30.5156,12.4062 C30.7969,12.4062 31.0677,12.4323 31.3281,12.4844 C31.5885,12.5365 31.8438,12.6198 32.0938,12.7344" fill-rule="nonzero" vector-effect="none"/></g><defs><clipPath id="clip116"><path d="M-117.5,-36.5 L426.453,-36.5 L426.453,154.5 L-117.5,154.5 L-117.5,-36.5 z"/></clipPath></defs><g clip-path="url(#clip116)" fill="none" opacity="1" stroke="#000000" stroke-linecap="butt" stroke-linejoin="miter" stroke-miterlimit="2" stroke-opacity="1" stroke-width="1" transform="matrix(1,0,0,1,117.5,36.5)"><path d="M0,0 L50,26 L0,52 L0,0 z" fill-rule="nonzero" vector-effect="none"/></g><defs><clipPath id="clip122"><path d="M0,0 L9,0 L9,15 L0,15 L0,0 z"/></clipPath></defs><g clip-path="url(#clip122)" fill="none" opacity="1" stroke="#000000" stroke-linecap="square" stroke-linejoin="bevel" stroke-opacity="1" stroke-width="1" transform="matrix(1,0,0,1,138.047,90)"><text fill="#000000" fill-opacity="1" font-family="Liberation Sans" font-size="10" font-style="normal" font-weight="400" stroke="none" textLength="6.65625" x="1" xml:space="preserve" y="11">K</text></g><defs><clipPath id="clip130"><path d="M-432,-20 L111.953,-20 L111.953,171 L-432,171 L-432,-20 z"/></clipPath></defs><g clip-path="url(#clip130)" fill="#ffffff" fill-opacity="1" opacity="1" stroke="none" stroke-opacity="0" transform="matrix(1,0,0,1,432,20)"><path d="M0,0 L5,0 L5,59 L0,59 L0,0 z" fill-rule="evenodd" vector-effect="none"/></g><defs><clipPath id="clip134"><path d="M755,143 L760,143 L760,202 L755,202 L755,143 z"/></clipPath></defs><g clip-path="url(#clip134)" fill="#000000" fill-opacity="1" opacity="1" stroke="none" stroke-opacity="0" transform="matrix(1,0,0,1,-323,-123)"><path d="M755,143 L760,143 L760,202 L755,202 L755,143 z" fill-rule="evenodd" vector-effect="none"/></g><defs><clipPath id="clip139"><path d="M-432.5,-20.5 L111.453,-20.5 L111.453,170.5 L-432.5,170.5 L-432.5,-20.5 z"/></clipPath></defs><g clip-path="url(#clip139)" fill="none" opacity="1" stroke="#000000" stroke-linecap="butt" stroke-linejoin="miter" stroke-miterlimit="2" stroke-opacity="1" stroke-width="1" transform="matrix(1,0,0,1,432.5,20.5)"><path d="M0,0 L5,0 L5,59 L0,59 L0,0 z" fill-rule="evenodd" vector-effect="none"/></g><defs><clipPath id="clip142"><path d="M-159,-2 L384.953,-2 L384.953,189 L-159,189 L-159,-2 z"/></clipPath></defs><g clip-path="url(#clip142)" fill="#ffffff" fill-opacity="1" opacity="1" stroke="none" stroke-opacity="0" transform="matrix(1,0,0,1,159,2)"><path d="M0,0 L16,0 L16,15 L0,15 L0,0 z" fill-rule="evenodd" vector-effect="none"/></g><defs><clipPath id="clip146"><path d="M0,0 L17,0 L17,16 L0,16 L0,0 z"/></clipPath></defs><g clip-path="url(#clip146)" fill="none" opacity="1" stroke="none" stroke-opacity="0" transform="matrix(1,0,0,1,159.375,2)"><path d="M0,0 L17,0 L17,16 L0,16 L0,0 z" fill-rule="evenodd" vector-effect="none"/></g><defs><clipPath id="clip156"><path d="M7,8 L23,8 L23,23 L7,23 L7,8 z"/></clipPath></defs><g clip-path="url(#clip156)" fill="#000000" fill-opacity="1" opacity="1" stroke="none" stroke-opacity="0" transform="matrix(1,0,0,1,152.375,-5.5)"><path d="M14.9844,11.3594 C14.4844,11.3594 14.1068,11.6094 13.8516,12.1094 C13.5964,12.6094 13.4688,13.3594 13.4688,14.3594 C13.4688,15.3594 13.5964,16.1094 13.8516,16.6094 C14.1068,17.1094 14.4844,17.3594 14.9844,17.3594 C15.5052,17.3594 15.8932,17.1094 16.1484,16.6094 C16.4036,16.1094 16.5312,15.3594 16.5312,14.3594 C16.5312,13.3594 16.4036,12.6094 16.1484,12.1094 C15.8932,11.6094 15.5052,11.3594 14.9844,11.3594 M14.9844,10.5781 C15.8073,10.5781 16.4349,10.901 16.8672,11.5469 C17.2995,12.1927 17.5156,13.1302 17.5156,14.3594 C17.5156,15.5885 17.2995,16.526 16.8672,17.1719 C16.4349,17.8177 15.8073,18.1406 14.9844,18.1406 C14.1719,18.1406 13.5495,17.8177 13.1172,17.1719 C12.6849,16.526 12.4688,15.5885 12.4688,14.3594 C12.4688,13.1302 12.6849,12.1927 13.1172,11.5469 C13.5495,10.901 14.1719,10.5781 14.9844,10.5781" fill-rule="nonzero" vector-effect="none"/></g><defs><clipPath id="clip176"><path d="M-159.5,-2.5 L384.453,-2.5 L384.453,188.5 L-159.5,188.5 L-159.5,-2.5 z"/></clipPath></defs><g clip-path="url(#clip176)" fill="none" opacity="1" stroke="#000000" stroke-linecap="butt" stroke-linejoin="miter" stroke-miterlimit="2" stroke-opacity="1" stroke-width="1" transform="matrix(1,0,0,1,159.5,2.5)"><path d="M0,0 L16,0 L16,15 L0,15 L0,0 z" fill-rule="evenodd" vector-effect="none"/></g><defs><clipPath id="clip179"><path d="M-192,-34 L351.953,-34 L351.953,157 L-192,157 L-192,-34 z"/></clipPath></defs><g clip-path="url(#clip179)" fill="#ffffff" fill-opacity="1" opacity="1" stroke="none" stroke-opacity="0" transform="matrix(1,0,0,1,192,34)"><path d="M0,0 L30,0 L30,36 L0,36 L0,0 z" fill-rule="evenodd" vector-effect="none"/></g><defs><clipPath id="clip183"><path d="M515,157 L545,157 L545,193 L515,193 L515,157 z"/></clipPath></defs><g clip-path="url(#clip183)" fill="none" opacity="1" stroke="#000000" stroke-linecap="butt" stroke-linejoin="miter" stroke-miterlimit="2" stroke-opacity="1" stroke-width="1" transform="matrix(1,0,0,1,-322.5,-122.5)"><polyline fill="none" points="515,165 519,165" vector-effect="none"/></g><defs><clipPath id="clip184"><path d="M515,157 L545,157 L545,193 L515,193 L515,157 z"/></clipPath></defs><g clip-path="url(#clip184)" fill="none" opacity="1" stroke="#000000" stroke-linecap="butt" stroke-linejoin="miter" stroke-miterlimit="2" stroke-opacity="1" stroke-width="1" transform="matrix(1,0,0,1,-322.5,-122.5)"><polyline fill="none" points="515,185 519,185" vector-effect="none"/></g><defs><clipPath id="clip185"><path d="M515,157 L545,157 L545,193 L515,193 L515,157 z"/></clipPath></defs><g clip-path="url(#clip185)" fill="none" opacity="1" stroke="#000000" stroke-linecap="butt" stroke-linejoin="miter" stroke-miterlimit="2" stroke-opacity="1" stroke-width="1" transform="matrix(1,0,0,1,-322.5,-122.5)"><polyline fill="none" points="541,175 545,175" vector-effect="none"/></g><defs><clipPath id="clip186"><path d="M515,157 L545,157 L545,193 L515,193 L515,157 z"/></clipPath></defs><g clip-path="url(#clip186)" fill="none" opacity="1" stroke="#000000" stroke-linecap="butt" stroke-linejoin="miter" stroke-miterlimit="2" stroke-opacity="1" stroke-width="1" transform="matrix(1,0,0,1,-322.5,-122.5)"><path d="M524,165 C524,166.105 522.881,167 521.5,167 C520.119,167 519,166.105 519,165 C519,163.895 520.119,163 521.5,163 C522.881,163 524,163.895 524,165 z" fill-rule="evenodd" vector-effect="none"/></g><defs><clipPath id="clip187"><path d="M515,157 L545,157 L545,193 L515,193 L515,157 z"/></clipPath></defs><g clip-path="url(#clip187)" fill="none" opacity="1" stroke="#000000" stroke-linecap="butt" stroke-linejoin="miter" stroke-miterlimit="2" stroke-opacity="1" stroke-width="1" transform="matrix(1,0,0,1,-322.5,-122.5)"><path d="M524,185 C524,186.105 522.881,187 521.5,187 C520.119,187 519,186.105 519,185 C519,183.895 520.119,183 521.5,183 C522.881,183 524,183.895 524,185 z" fill-rule="evenodd" vector-effect="none"/></g><defs><clipPath id="clip188"><path d="M515,157 L545,157 L545,193 L515,193 L515,157 z"/></clipPath></defs><g clip-path="url(#clip188)" fill="none" opacity="1" stroke="#000000" stroke-linecap="butt" stroke-linejoin="miter" stroke-miterlimit="2" stroke-opacity="1" stroke-width="1" transform="matrix(1,0,0,1,-322.5,-122.5)"><path d="M541,175 C541,176.105 539.881,177 538.5,177 C537.119,177 536,176.105 536,175 C536,173.895 537.119,173 538.5,173 C539.881,173 541,173.895 541,175 z" fill-rule="evenodd" vector-effect="none"/></g><defs><clipPath id="clip189"><path d="M515,157 L545,157 L545,193 L515,193 L515,157 z"/></clipPath></defs><g clip-path="url(#clip189)" fill="none" opacity="1" stroke="#000000" stroke-linecap="butt" stroke-linejoin="miter" stroke-miterlimit="2" stroke-opacity="1" stroke-width="1" transform="matrix(1,0,0,1,-322.5,-122.5)"><polyline fill="none" points="524,185 536,175" vector-effect="none"/></g><defs><clipPath id="clip194"><path d="M-192,-34 L351.953,-34 L351.953,157 L-192,157 L-192,-34 z"/></clipPath></defs><g clip-path="url(#clip194)" fill="none" opacity="1" stroke="none" stroke-opacity="0" transform="matrix(1,0,0,1,192,34)"><path d="M0,0 L30,0 L30,36 L0,36 L0,0 z" fill-rule="evenodd" vector-effect="none"/></g><defs><clipPath id="clip197"><path d="M-262,-101 L281.953,-101 L281.953,90 L-262,90 L-262,-101 z"/></clipPath></defs><g clip-path="url(#clip197)" fill="#ffffff" fill-opacity="1" opacity="1" stroke="none" stroke-opacity="0" transform="matrix(1,0,0,1,262,101)"><path d="M0,0 L70,0 L70,47 L0,47 L0,0 z" fill-rule="evenodd" vector-effect="none"/></g><defs><clipPath id="clip201"><path d="M0,0 L71,0 L71,48 L0,48 L0,0 z"/></clipPath></defs><g clip-path="url(#clip201)" fill="none" opacity="1" stroke="none" stroke-opacity="0" transform="matrix(1,0,0,1,262.375,101)"><path d="M0,0 L71,0 L71,48 L0,48 L0,0 z" fill-rule="evenodd" vector-effect="none"/></g><defs><radialGradient cx="25.5117" cy="23.835" fx="25.5117" fy="23.835" gradientUnits="userSpaceOnUse" id="grad1" r="20.307"><stop offset="0.3308" stop-opacity="1" stop-color="#73c8ec"/><stop offset="0.4484" stop-opacity="1" stop-color="#128dbb"/><stop offset="0.4836" stop-opacity="1" stop-color="#d16432"/><stop offset="0.5995" stop-opacity="1" stop-color="#d15f2c"/><stop offset="0.7588" stop-opacity="1" stop-color="#d0511a"/><stop offset="0.9264" stop-opacity="1" stop-color="#cf3d00"/></radialGradient><clipPath id="clip214"><path d="M0,0 L16,0 L16,16 L0,16 L0,0 z"/></clipPath></defs><g clip-path="url(#clip214)" fill="url(#grad1)" opacity="1" stroke="none" stroke-opacity="0" transform="matrix(1,0,0,1,289.375,116.5)"><path d="M15.609,11 C15.093,9.521 14.757,8.104 14.189,6.442 C13.906,5.605 13.601,4.66 13.32,3.815 C13.015,2.901 12.476,2.072 12.049,1.295 C11.875,0.968 11.438,0.209 10.971,0.211 C10.83,0.211 10.727,0.278 10.641,0.341 C10.336,0.55 7.509,4.558 7.18,4.691 C7.079,4.736 6.953,4.753 6.838,4.792 C6.58,4.892 6.391,5.007 6.19,5.181 C5.86,5.482 5.547,5.876 5.267,6.241 C5.211,6.318 4.648,7.127 4.563,7.241 L0.376,9.018 C0.376,9.018 5.367,12.054 5.696,12.884 C5.924,13.473 7.07,15.132 7.297,15.731 C8.049,15.552 8.524,14.785 9.018,14.342 C9.556,13.861 10.039,13.217 10.493,12.643 C11.376,11.53 11.727,10.814 13.196,10.638 C13.594,10.59 14.337,10.814 14.518,10.969 C14.789,11.197 15.141,11.341 15.401,11.574 C15.859,11.984 15.775,11.496 15.609,11 z" fill-rule="nonzero" vector-effect="none"/></g><defs><clipPath id="clip215"><path d="M0,0 L16,0 L16,16 L0,16 L0,0 z"/></clipPath></defs><g clip-path="url(#clip215)" fill="#f5ae81" fill-opacity="1" opacity="1" stroke="none" stroke-opacity="0" transform="matrix(1,0,0,1,289.375,116.5)"><path d="M12.203,4.792 C12.375,6.326 12.142,7.576 11.695,7.599 C11.236,7.621 10.726,6.396 10.554,4.87 C10.39,3.336 10.618,2.088 11.064,2.063 C11.523,2.04 12.031,3.256 12.203,4.792 z" fill-rule="nonzero" vector-effect="none"/></g><defs><linearGradient gradientUnits="userSpaceOnUse" id="grad2" x1="9.8174" x2="9.8174" y1="0.3408" y2="16.0005"><stop offset="1e-07" stop-opacity="1" stop-color="#a32e17"/><stop offset="0.2308" stop-opacity="1" stop-color="#972d13"/><stop offset="0.645" stop-opacity="1" stop-color="#78290a"/><stop offset="1" stop-opacity="1" stop-color="#582500"/></linearGradient><clipPath id="clip216"><path d="M0,0 L16,0 L16,16 L0,16 L0,0 z"/></clipPath></defs><g clip-path="url(#clip216)" fill="url(#grad2)" opacity="1" stroke="none" stroke-opacity="0" transform="matrix(1,0,0,1,289.375,116.5)"><path d="M15.955,11.295 C15.619,10.187 13.047,1.451 11.656,0.341 L10.82,0.506 L10.898,0.715 C10.953,0.683 11.015,0.684 11.046,0.699 C11.814,1.001 13.767,6.946 13.767,6.946 C14.22,8.467 14.64,9.72 14.994,10.72 C14.484,10.389 13.937,10.186 13.416,10.17 C11.594,10.115 10.814,11.528 9.58,13.024 C9.031,13.698 8.174,14.729 7.596,15.148 C6.633,12.464 4.829,11.217 4.243,10.875 L3.634,11.31 L3.655,11.318 C3.655,11.318 6.164,12.513 7.142,16 C7.156,15.999 7.174,16 7.189,16 C8.844,16 11.476,10.521 13.416,10.829 C14,10.922 14.711,11.288 15.312,11.808 C15.633,12.069 16.158,11.971 15.955,11.295 z" fill-rule="nonzero" vector-effect="none"/></g><defs><linearGradient gradientUnits="userSpaceOnUse" id="grad3" x1="5.9292" x2="5.9292" y1="0.000488281" y2="11.3101"><stop offset="1e-07" stop-opacity="1" stop-color="#3088cd"/><stop offset="0.5471" stop-opacity="1" stop-color="#185991"/><stop offset="0.8957" stop-opacity="1" stop-color="#0b3f6f"/></linearGradient><clipPath id="clip217"><path d="M0,0 L16,0 L16,16 L0,16 L0,0 z"/></clipPath></defs><g clip-path="url(#clip217)" fill="url(#grad3)" opacity="1" stroke="none" stroke-opacity="0" transform="matrix(1,0,0,1,289.375,116.5)"><path d="M11.164,0.016 C11.127,0.007 11.096,0.001 11.062,0.001 C9.627,-0.061 8.016,4.03 6.695,4.736 C5.328,5.465 5.242,6.155 4.798,6.762 C4.359,7.374 0,8.915 0,8.915 L3.634,11.31 L4.155,10.947 C4.924,10.452 6.242,9.467 7.406,7.784 C9.017,5.474 10,2.7 10.468,1.374 C10.468,1.374 10.554,1.135 10.611,1.025 C10.695,0.871 10.799,0.762 10.937,0.706 C11.304,0.514 11.859,0.551 11.859,0.551 C11.672,0.312 11.375,0.063 11.164,0.016 M3.609,10.481 L1.485,9.085 C2.663,8.644 3.82,8.157 4.579,7.731 L5.812,8.661 C4.931,9.599 4.094,10.188 3.609,10.481 M6.822,7.419 C6.641,7.683 6.453,7.924 6.26,8.155 L5.181,7.342 C5.259,7.272 5.328,7.203 5.369,7.142 C5.493,6.979 5.594,6.807 5.695,6.622 C5.953,6.171 6.174,5.776 7.033,5.317 C7.688,4.968 8.359,4.115 9.055,3.155 C8.523,4.459 7.79,6.031 6.822,7.419" fill-rule="nonzero" vector-effect="none"/></g><defs><clipPath id="clip236"><path d="M15,27 L85,27 L85,74 L15,74 L15,27 z"/></clipPath></defs><g clip-path="url(#clip236)" fill="#000000" fill-opacity="1" opacity="1" stroke="none" stroke-opacity="0" transform="matrix(1,0,0,1,247.375,74.5)"><path d="M38.5625,60.4062 L38.5625,61.1562 L37.7031,61.1562 C37.3802,61.1562 37.1562,61.2214 37.0312,61.3516 C36.9062,61.4818 36.8438,61.7135 36.8438,62.0469 L36.8438,62.5312 L38.3125,62.5312 L38.3125,63.2344 L36.8438,63.2344 L36.8438,68 L35.9375,68 L35.9375,63.2344 L35.0781,63.2344 L35.0781,62.5312 L35.9375,62.5312 L35.9375,62.1562 C35.9375,61.5417 36.0781,61.0964 36.3594,60.8203 C36.6406,60.5443 37.0885,60.4062 37.7031,60.4062 L38.5625,60.4062 M39.2031,65.8438 L39.2031,62.5312 L40.1094,62.5312 L40.1094,65.8125 C40.1094,66.3229 40.2109,66.7083 40.4141,66.9688 C40.6172,67.2292 40.9167,67.3594 41.3125,67.3594 C41.8021,67.3594 42.1875,67.2057 42.4688,66.8984 C42.75,66.5911 42.8906,66.1667 42.8906,65.625 L42.8906,62.5312 L43.7969,62.5312 L43.7969,68 L42.8906,68 L42.8906,67.1562 C42.6719,67.4896 42.4193,67.737 42.1328,67.8984 C41.8464,68.0599 41.5104,68.1406 41.125,68.1406 C40.5,68.1406 40.0234,67.9453 39.6953,67.5547 C39.3672,67.1641 39.2031,66.5938 39.2031,65.8438 M48.7969,63.375 C48.6927,63.3125 48.5833,63.2682 48.4688,63.2422 C48.3542,63.2161 48.224,63.2031 48.0781,63.2031 C47.5677,63.2031 47.1771,63.3672 46.9062,63.6953 C46.6354,64.0234 46.5,64.5 46.5,65.125 L46.5,68 L45.5938,68 L45.5938,62.5312 L46.5,62.5312 L46.5,63.375 C46.6875,63.0417 46.9323,62.7969 47.2344,62.6406 C47.5365,62.4844 47.9062,62.4062 48.3438,62.4062 C48.4062,62.4062 48.474,62.4089 48.5469,62.4141 C48.6198,62.4193 48.7031,62.4323 48.7969,62.4531 L48.7969,63.375 M49.6406,65.8438 L49.6406,62.5312 L50.5469,62.5312 L50.5469,65.8125 C50.5469,66.3229 50.6484,66.7083 50.8516,66.9688 C51.0547,67.2292 51.3542,67.3594 51.75,67.3594 C52.2396,67.3594 52.625,67.2057 52.9062,66.8984 C53.1875,66.5911 53.3281,66.1667 53.3281,65.625 L53.3281,62.5312 L54.2344,62.5312 L54.2344,68 L53.3281,68 L53.3281,67.1562 C53.1094,67.4896 52.8568,67.737 52.5703,67.8984 C52.2839,68.0599 51.9479,68.1406 51.5625,68.1406 C50.9375,68.1406 50.4609,67.9453 50.1328,67.5547 C49.8047,67.1641 49.6406,66.5938 49.6406,65.8438 M56.9531,60.9844 L56.9531,62.5312 L58.8125,62.5312 L58.8125,63.2344 L56.9531,63.2344 L56.9531,66.2031 C56.9531,66.6406 57.0156,66.9245 57.1406,67.0547 C57.2656,67.1849 57.5156,67.25 57.8906,67.25 L58.8125,67.25 L58.8125,68 L57.8906,68 C57.1927,68 56.7109,67.8698 56.4453,67.6094 C56.1797,67.349 56.0469,66.8802 56.0469,66.2031 L56.0469,63.2344 L55.3906,63.2344 L55.3906,62.5312 L56.0469,62.5312 L56.0469,60.9844 L56.9531,60.9844 M62.4531,65.25 C61.7344,65.25 61.2344,65.3333 60.9531,65.5 C60.6719,65.6667 60.5312,65.9479 60.5312,66.3438 C60.5312,66.6667 60.6354,66.9219 60.8438,67.1094 C61.0521,67.2969 61.3385,67.3906 61.7031,67.3906 C62.2031,67.3906 62.6042,67.2135 62.9062,66.8594 C63.2083,66.5052 63.3594,66.0365 63.3594,65.4531 L63.3594,65.25 L62.4531,65.25 M64.25,64.875 L64.25,68 L63.3594,68 L63.3594,67.1719 C63.151,67.5052 62.8932,67.75 62.5859,67.9062 C62.2786,68.0625 61.9062,68.1406 61.4688,68.1406 C60.9062,68.1406 60.4583,67.9844 60.125,67.6719 C59.7917,67.3594 59.625,66.9375 59.625,66.4062 C59.625,65.7917 59.8333,65.3281 60.25,65.0156 C60.6667,64.7031 61.2812,64.5469 62.0938,64.5469 L63.3594,64.5469 L63.3594,64.4531 C63.3594,64.0469 63.2214,63.7292 62.9453,63.5 C62.6693,63.2708 62.2865,63.1562 61.7969,63.1562 C61.4844,63.1562 61.1797,63.1953 60.8828,63.2734 C60.5859,63.3516 60.3021,63.4635 60.0312,63.6094 L60.0312,62.7812 C60.3646,62.6562 60.6849,62.5625 60.9922,62.5 C61.2995,62.4375 61.599,62.4062 61.8906,62.4062 C62.6823,62.4062 63.2734,62.6094 63.6641,63.0156 C64.0547,63.4219 64.25,64.0417 64.25,64.875" fill-rule="nonzero" vector-effect="none"/></g><defs><clipPath id="clip252"><path d="M-67,-11 L3,-11 L3,36 L-67,36 L-67,-11 z"/></clipPath></defs><g clip-path="url(#clip252)" fill="none" opacity="1" stroke="#000000" stroke-linecap="butt" stroke-linejoin="miter" stroke-miterlimit="2" stroke-opacity="1" stroke-width="1" transform="matrix(1,0,0,1,329,112)"><text fill="#000000" fill-opacity="1" font-family="Liberation Sans" font-size="9" font-style="normal" font-weight="400" stroke="none" textLength="5" x="-5" xml:space="preserve" y="3.5">u</text></g><defs><clipPath id="clip253"><path d="M-67,-36 L3,-36 L3,11 L-67,11 L-67,-36 z"/></clipPath></defs><g clip-path="url(#clip253)" fill="none" opacity="1" stroke="#000000" stroke-linecap="butt" stroke-linejoin="miter" stroke-miterlimit="2" stroke-opacity="1" stroke-width="1" transform="matrix(1,0,0,1,329,137)"><text fill="#000000" fill-opacity="1" font-family="Liberation Sans" font-size="9" font-style="normal" font-weight="400" stroke="none" textLength="4.5" x="-4.5" xml:space="preserve" y="3.5">x</text></g><defs><clipPath id="clip254"><path d="M-3,-26 L67,-26 L67,21 L-3,21 L-3,-26 z"/></clipPath></defs><g clip-path="url(#clip254)" fill="none" opacity="1" stroke="#000000" stroke-linecap="butt" stroke-linejoin="miter" stroke-miterlimit="2" stroke-opacity="1" stroke-width="1" transform="matrix(1,0,0,1,265,127)"><text fill="#000000" fill-opacity="1" font-family="Liberation Sans" font-size="9" font-style="normal" font-weight="400" stroke="none" textLength="22" x="0" xml:space="preserve" y="3.5">x_dot</text></g><defs><clipPath id="clip259"><path d="M-262,-101 L281.953,-101 L281.953,90 L-262,90 L-262,-101 z"/></clipPath></defs><g clip-path="url(#clip259)" fill="none" opacity="1" stroke="#000000" stroke-linecap="butt" stroke-linejoin="miter" stroke-miterlimit="2" stroke-opacity="1" stroke-width="2" transform="matrix(1,0,0,1,262,101)"><path d="M0,0 L70,0 L70,47 L0,47 L0,0 z" fill-rule="evenodd" vector-effect="none"/></g><defs><clipPath id="clip265"><path d="M0,0 L46,0 L46,15 L0,15 L0,0 z"/></clipPath></defs><g clip-path="url(#clip265)" fill="none" opacity="1" stroke="#000000" stroke-linecap="square" stroke-linejoin="bevel" stroke-opacity="1" stroke-width="1" transform="matrix(1,0,0,1,274.469,150)"><text fill="#000000" fill-opacity="1" font-family="Liberation Sans" font-size="10" font-style="normal" font-weight="400" stroke="none" textLength="43.8125" x="1" xml:space="preserve" y="11">NL_furuta</text></g><defs><clipPath id="clip273"><path d="M-212,-111 L331.953,-111 L331.953,80 L-212,80 L-212,-111 z"/></clipPath></defs><g clip-path="url(#clip273)" fill="#ffffff" fill-opacity="1" opacity="1" stroke="none" stroke-opacity="0" transform="matrix(1,0,0,1,212,111)"><path d="M0,0 L30,0 L30,32 L0,32 L0,0 z" fill-rule="evenodd" vector-effect="none"/></g><defs><clipPath id="clip277"><path d="M0,0 L31,0 L31,33 L0,33 L0,0 z"/></clipPath></defs><g clip-path="url(#clip277)" fill="none" opacity="1" stroke="none" stroke-opacity="0" transform="matrix(1,0,0,1,212.375,111)"><path d="M0,0 L31,0 L31,33 L0,33 L0,0 z" fill-rule="evenodd" vector-effect="none"/></g><defs><clipPath id="clip288"><path d="M0,0 L9,0 L9,31 L0,31 L0,0 z"/></clipPath></defs><g clip-path="url(#clip288)" fill="#000000" fill-opacity="1" opacity="1" stroke="none" stroke-opacity="0" transform="matrix(0.85,0,0,0.85,223.55,113.825)"><path d="M1,15 L8,15 L8,16 L1,16 L1,15 z" fill-rule="evenodd" vector-effect="none"/></g><defs><clipPath id="clip289"><path d="M0,0 L9,0 L9,31 L0,31 L0,0 z"/></clipPath></defs><g clip-path="url(#clip289)" fill="#000000" fill-opacity="1" opacity="1" stroke="none" stroke-opacity="0" transform="matrix(0.85,0,0,0.85,223.55,113.825)"><path d="M6.125,11 L6.125,10.8125 C5.14062,10.8125 4.89062,10.5781 4.89062,10.0156 L4.89062,2.25 L4.76562,2.21875 L2.4375,3.39062 L2.4375,3.57812 L2.79688,3.45312 C3.03125,3.35938 3.25,3.29688 3.375,3.29688 C3.65625,3.29688 3.76562,3.48438 3.76562,3.92188 L3.76562,9.76562 C3.76562,10.4844 3.5,10.75 2.53125,10.8125 L2.53125,11 L6.125,11 z" fill-rule="nonzero" vector-effect="none"/></g><defs><clipPath id="clip290"><path d="M0,0 L9,0 L9,31 L0,31 L0,0 z"/></clipPath></defs><g clip-path="url(#clip290)" fill="#000000" fill-opacity="1" opacity="1" stroke="none" stroke-opacity="0" transform="matrix(0.85,0,0,0.85,223.55,113.825)"><path d="M6.23438,21.25 L6.04688,21.25 C5.9375,21.4375 5.84375,21.4844 5.65625,21.4844 C5.54688,21.4844 5.4375,21.4688 5.1875,21.3906 C4.85938,21.3125 4.6875,21.2656 4.45312,21.2656 C3.5,21.2656 2.89062,21.8125 2.89062,22.6719 C2.89062,23.0938 3.14062,23.6719 3.70312,24.375 C4.21875,25.0156 4.4375,25.4531 4.4375,25.875 C4.4375,26.5 4.0625,26.875 3.4375,26.875 C2.76562,26.875 2.32812,26.3438 2.14062,25.1094 L1.9375,25.1094 L1.67188,27.1719 L1.89062,27.1719 C1.96875,26.9688 2.125,26.8906 2.26562,26.8906 C2.40625,26.8906 2.59375,26.9062 2.82812,27.0156 C3.14062,27.125 3.32812,27.1406 3.54688,27.1406 C4.625,27.1406 5.42188,26.4844 5.42188,25.4062 C5.42188,24.8906 5.1875,24.3906 4.53125,23.6406 C4.03125,23.0312 3.82812,22.6562 3.82812,22.3125 C3.82812,21.8281 4.14062,21.5625 4.60938,21.5625 C5.23438,21.5625 5.625,22 5.76562,23.0781 L5.96875,23.0781 L6.23438,21.25 z" fill-rule="nonzero" vector-effect="none"/></g><defs><clipPath id="clip313"><path d="M-212.5,-111.5 L331.453,-111.5 L331.453,79.5 L-212.5,79.5 L-212.5,-111.5 z"/></clipPath></defs><g clip-path="url(#clip313)" fill="none" opacity="1" stroke="#000000" stroke-linecap="butt" stroke-linejoin="miter" stroke-miterlimit="2" stroke-opacity="1" stroke-width="1" transform="matrix(1,0,0,1,212.5,111.5)"><path d="M0,0 L30,0 L30,32 L0,32 L0,0 z" fill-rule="evenodd" vector-effect="none"/></g><defs><clipPath id="clip316"><path d="M-432,-103 L111.953,-103 L111.953,88 L-432,88 L-432,-103 z"/></clipPath></defs><g clip-path="url(#clip316)" fill="#ffffff" fill-opacity="1" opacity="1" stroke="none" stroke-opacity="0" transform="matrix(1,0,0,1,432,103)"><path d="M0,0 L5,0 L5,63 L0,63 L0,0 z" fill-rule="evenodd" vector-effect="none"/></g><defs><clipPath id="clip320"><path d="M755,226 L760,226 L760,289 L755,289 L755,226 z"/></clipPath></defs><g clip-path="url(#clip320)" fill="#000000" fill-opacity="1" opacity="1" stroke="none" stroke-opacity="0" transform="matrix(1,0,0,1,-323,-123)"><path d="M755,226 L760,226 L760,289 L755,289 L755,226 z" fill-rule="evenodd" vector-effect="none"/></g><defs><clipPath id="clip325"><path d="M-432.5,-103.5 L111.453,-103.5 L111.453,87.5 L-432.5,87.5 L-432.5,-103.5 z"/></clipPath></defs><g clip-path="url(#clip325)" fill="none" opacity="1" stroke="#000000" stroke-linecap="butt" stroke-linejoin="miter" stroke-miterlimit="2" stroke-opacity="1" stroke-width="1" transform="matrix(1,0,0,1,432.5,103.5)"><path d="M0,0 L5,0 L5,63 L0,63 L0,0 z" fill-rule="evenodd" vector-effect="none"/></g><defs><clipPath id="clip328"><path d="M-64,-112 L479.953,-112 L479.953,79 L-64,79 L-64,-112 z"/></clipPath></defs><g clip-path="url(#clip328)" fill="#ffffff" fill-opacity="1" opacity="1" stroke="none" stroke-opacity="0" transform="matrix(1,0,0,1,64,112)"><path d="M0,0 L36,0 L36,30 L0,30 L0,0 z" fill-rule="evenodd" vector-effect="none"/></g><defs><clipPath id="clip332"><path d="M387,235 L423,235 L423,265 L387,265 L387,235 z"/></clipPath></defs><g clip-path="url(#clip332)" fill="none" opacity="1" stroke="#000000" stroke-linecap="butt" stroke-linejoin="miter" stroke-miterlimit="2" stroke-opacity="1" stroke-width="1" transform="matrix(1,0,0,1,-322.5,-122.5)"><polyline fill="none" points="395,265 395,261" vector-effect="none"/></g><defs><clipPath id="clip333"><path d="M387,235 L423,235 L423,265 L387,265 L387,235 z"/></clipPath></defs><g clip-path="url(#clip333)" fill="none" opacity="1" stroke="#000000" stroke-linecap="butt" stroke-linejoin="miter" stroke-miterlimit="2" stroke-opacity="1" stroke-width="1" transform="matrix(1,0,0,1,-322.5,-122.5)"><polyline fill="none" points="415,265 415,261" vector-effect="none"/></g><defs><clipPath id="clip334"><path d="M387,235 L423,235 L423,265 L387,265 L387,235 z"/></clipPath></defs><g clip-path="url(#clip334)" fill="none" opacity="1" stroke="#000000" stroke-linecap="butt" stroke-linejoin="miter" stroke-miterlimit="2" stroke-opacity="1" stroke-width="1" transform="matrix(1,0,0,1,-322.5,-122.5)"><polyline fill="none" points="405,239 405,235" vector-effect="none"/></g><defs><clipPath id="clip335"><path d="M387,235 L423,235 L423,265 L387,265 L387,235 z"/></clipPath></defs><g clip-path="url(#clip335)" fill="none" opacity="1" stroke="#000000" stroke-linecap="butt" stroke-linejoin="miter" stroke-miterlimit="2" stroke-opacity="1" stroke-width="1" transform="matrix(1,0,0,1,-322.5,-122.5)"><path d="M397,258.5 C397,259.881 396.105,261 395,261 C393.895,261 393,259.881 393,258.5 C393,257.119 393.895,256 395,256 C396.105,256 397,257.119 397,258.5 z" fill-rule="evenodd" vector-effect="none"/></g><defs><clipPath id="clip336"><path d="M387,235 L423,235 L423,265 L387,265 L387,235 z"/></clipPath></defs><g clip-path="url(#clip336)" fill="none" opacity="1" stroke="#000000" stroke-linecap="butt" stroke-linejoin="miter" stroke-miterlimit="2" stroke-opacity="1" stroke-width="1" transform="matrix(1,0,0,1,-322.5,-122.5)"><path d="M417,258.5 C417,259.881 416.105,261 415,261 C413.895,261 413,259.881 413,258.5 C413,257.119 413.895,256 415,256 C416.105,256 417,257.119 417,258.5 z" fill-rule="evenodd" vector-effect="none"/></g><defs><clipPath id="clip337"><path d="M387,235 L423,235 L423,265 L387,265 L387,235 z"/></clipPath></defs><g clip-path="url(#clip337)" fill="none" opacity="1" stroke="#000000" stroke-linecap="butt" stroke-linejoin="miter" stroke-miterlimit="2" stroke-opacity="1" stroke-width="1" transform="matrix(1,0,0,1,-322.5,-122.5)"><path d="M407,241.5 C407,242.881 406.105,244 405,244 C403.895,244 403,242.881 403,241.5 C403,240.119 403.895,239 405,239 C406.105,239 407,240.119 407,241.5 z" fill-rule="evenodd" vector-effect="none"/></g><defs><clipPath id="clip338"><path d="M387,235 L423,235 L423,265 L387,265 L387,235 z"/></clipPath></defs><g clip-path="url(#clip338)" fill="none" opacity="1" stroke="#000000" stroke-linecap="butt" stroke-linejoin="miter" stroke-miterlimit="2" stroke-opacity="1" stroke-width="1" transform="matrix(1,0,0,1,-322.5,-122.5)"><polyline fill="none" points="395,256 405,244" vector-effect="none"/></g><defs><clipPath id="clip343"><path d="M-64,-112 L479.953,-112 L479.953,79 L-64,79 L-64,-112 z"/></clipPath></defs><g clip-path="url(#clip343)" fill="none" opacity="1" stroke="none" stroke-opacity="0" transform="matrix(1,0,0,1,64,112)"><path d="M0,0 L36,0 L36,30 L0,30 L0,0 z" fill-rule="evenodd" vector-effect="none"/></g><defs><clipPath id="clip349"><path d="M0,0 L57,0 L57,15 L0,15 L0,0 z"/></clipPath></defs><g clip-path="url(#clip349)" fill="none" opacity="1" stroke="#000000" stroke-linecap="square" stroke-linejoin="bevel" stroke-opacity="1" stroke-width="1" transform="matrix(1,0,0,1,2,119.5)"><text fill="#000000" fill-opacity="1" font-family="Liberation Sans" font-size="10" font-style="normal" font-weight="400" stroke="none" textLength="54.375" x="2" xml:space="preserve" y="11">Sys selector</text></g><defs><clipPath id="clip357"><path d="M-502,-107 L41.9531,-107 L41.9531,84 L-502,84 L-502,-107 z"/></clipPath></defs><g clip-path="url(#clip357)" fill="#ffffff" fill-opacity="1" opacity="1" stroke="none" stroke-opacity="0" transform="matrix(1,0,0,1,502,107)"><path d="M0,0 L30,0 L30,55 L0,55 L0,0 z" fill-rule="evenodd" vector-effect="none"/></g><defs><clipPath id="clip361"><path d="M0,0 L31,0 L31,56 L0,56 L0,0 z"/></clipPath></defs><g clip-path="url(#clip361)" fill="none" opacity="1" stroke="none" stroke-opacity="0" transform="matrix(1,0,0,1,502.375,107)"><path d="M0,0 L31,0 L31,56 L0,56 L0,0 z" fill-rule="evenodd" vector-effect="none"/></g><defs><clipPath id="clip371"><path d="M1,1 L31,1 L31,56 L1,56 L1,1 z"/></clipPath></defs><g clip-path="url(#clip371)" fill="none" opacity="1" stroke="#000000" stroke-linecap="round" stroke-linejoin="round" stroke-opacity="1" stroke-width="1.3" transform="matrix(1,0,0,1,501.375,106)"><path d="M7.5,8.5 L25.5,8.5 C26.6046,8.5 27.5,10.1416 27.5,12.1667 L27.5,28.8333 C27.5,30.8584 26.6046,32.5 25.5,32.5 L7.5,32.5 C6.39543,32.5 5.5,30.8584 5.5,28.8333 L5.5,12.1667 C5.5,10.1416 6.39543,8.5 7.5,8.5 z" fill-rule="nonzero" vector-effect="none"/></g><defs><clipPath id="clip391"><path d="M-502.5,-107.5 L41.4531,-107.5 L41.4531,83.5 L-502.5,83.5 L-502.5,-107.5 z"/></clipPath></defs><g clip-path="url(#clip391)" fill="none" opacity="1" stroke="#000000" stroke-linecap="butt" stroke-linejoin="miter" stroke-miterlimit="2" stroke-opacity="1" stroke-width="1" transform="matrix(1,0,0,1,502.5,107.5)"><path d="M0,0 L30,0 L30,55 L0,55 L0,0 z" fill-rule="evenodd" vector-effect="none"/></g><defs><clipPath id="clip397"><path d="M0,0 L49,0 L49,15 L0,15 L0,0 z"/></clipPath></defs><g clip-path="url(#clip397)" fill="none" opacity="1" stroke="#000000" stroke-linecap="square" stroke-linejoin="bevel" stroke-opacity="1" stroke-width="1" transform="matrix(1,0,0,1,493.07,90)"><text fill="#000000" fill-opacity="1" font-family="Liberation Sans" font-size="10" font-style="normal" font-weight="400" stroke="none" textLength="46.6094" x="1" xml:space="preserve" y="11">NL_Scope</text></g><defs><clipPath id="clip405"><path d="M-502,-22 L41.9531,-22 L41.9531,169 L-502,169 L-502,-22 z"/></clipPath></defs><g clip-path="url(#clip405)" fill="#ffffff" fill-opacity="1" opacity="1" stroke="none" stroke-opacity="0" transform="matrix(1,0,0,1,502,22)"><path d="M0,0 L30,0 L30,55 L0,55 L0,0 z" fill-rule="evenodd" vector-effect="none"/></g><defs><clipPath id="clip409"><path d="M0,0 L31,0 L31,56 L0,56 L0,0 z"/></clipPath></defs><g clip-path="url(#clip409)" fill="none" opacity="1" stroke="none" stroke-opacity="0" transform="matrix(1,0,0,1,502.375,22)"><path d="M0,0 L31,0 L31,56 L0,56 L0,0 z" fill-rule="evenodd" vector-effect="none"/></g><defs><clipPath id="clip419"><path d="M1,1 L31,1 L31,56 L1,56 L1,1 z"/></clipPath></defs><g clip-path="url(#clip419)" fill="none" opacity="1" stroke="#000000" stroke-linecap="round" stroke-linejoin="round" stroke-opacity="1" stroke-width="1.3" transform="matrix(1,0,0,1,501.375,20.9999)"><path d="M7.5,8.5 L25.5,8.5 C26.6046,8.5 27.5,10.1416 27.5,12.1667 L27.5,28.8333 C27.5,30.8584 26.6046,32.5 25.5,32.5 L7.5,32.5 C6.39543,32.5 5.5,30.8584 5.5,28.8333 L5.5,12.1667 C5.5,10.1416 6.39543,8.5 7.5,8.5 z" fill-rule="nonzero" vector-effect="none"/></g><defs><clipPath id="clip439"><path d="M-502.5,-22.5 L41.4531,-22.5 L41.4531,168.5 L-502.5,168.5 L-502.5,-22.5 z"/></clipPath></defs><g clip-path="url(#clip439)" fill="none" opacity="1" stroke="#000000" stroke-linecap="butt" stroke-linejoin="miter" stroke-miterlimit="2" stroke-opacity="1" stroke-width="1" transform="matrix(1,0,0,1,502.5,22.5)"><path d="M0,0 L30,0 L30,55 L0,55 L0,0 z" fill-rule="evenodd" vector-effect="none"/></g><defs><clipPath id="clip445"><path d="M0,0 L49,0 L49,15 L0,15 L0,0 z"/></clipPath></defs><g clip-path="url(#clip445)" fill="none" opacity="1" stroke="#000000" stroke-linecap="square" stroke-linejoin="bevel" stroke-opacity="1" stroke-width="1" transform="matrix(1,0,0,1,492.797,5)"><text fill="#000000" fill-opacity="1" font-family="Liberation Sans" font-size="10" font-style="normal" font-weight="400" stroke="none" textLength="47.1562" x="1" xml:space="preserve" y="11">Lin_Scope</text></g><defs><clipPath id="clip453"><path d="M-17,-54 L526.953,-54 L526.953,137 L-17,137 L-17,-54 z"/></clipPath></defs><g clip-path="url(#clip453)" fill="#ffffff" fill-opacity="1" opacity="1" stroke="none" stroke-opacity="0" transform="matrix(1,0,0,1,17,54)"><path d="M0,0 L30,0 L30,16 L0,16 L0,0 z" fill-rule="evenodd" vector-effect="none"/></g><defs><clipPath id="clip458"><path d="M-297.526,-514.167 L4575.39,-514.167 L4575.39,1196.88 L-297.526,1196.88 L-297.526,-514.167 z"/></clipPath></defs><g clip-path="url(#clip458)" fill="#ffffff" fill-opacity="1" opacity="0.75" stroke="none" stroke-opacity="0" transform="matrix(0.111628,0,0,0.111628,33.2122,57.3953)"><path d="M0,0 L5,0 L5,78 L0,78 L0,0 z" fill-rule="evenodd" vector-effect="none"/></g><defs><clipPath id="clip459"><path d="M-297.526,-514.167 L4575.39,-514.167 L4575.39,1196.88 L-297.526,1196.88 L-297.526,-514.167 z"/></clipPath></defs><g clip-path="url(#clip459)" fill="none" opacity="0.75" stroke="#000000" stroke-linecap="butt" stroke-linejoin="miter" stroke-miterlimit="2" stroke-opacity="1" stroke-width="1" transform="matrix(0.111628,0,0,0.111628,33.2122,57.3953)"><path d="M0,0 L5,0 L5,78 L0,78 L0,0 z" fill-rule="evenodd" vector-effect="none"/></g><defs><clipPath id="clip462"><path d="M-367.526,-546.167 L4505.39,-546.167 L4505.39,1164.88 L-367.526,1164.88 L-367.526,-546.167 z"/></clipPath></defs><g clip-path="url(#clip462)" fill="#ffffff" fill-opacity="1" opacity="0.75" stroke="none" stroke-opacity="0" transform="matrix(0.111628,0,0,0.111628,41.0262,60.9674)"><path d="M7,0 L23,0 C26.866,0 30,3.13401 30,7 C30,10.866 26.866,14 23,14 L7,14 C3.13401,14 0,10.866 0,7 C0,3.13401 3.13401,0 7,0 z" fill-rule="nonzero" vector-effect="none"/></g><defs><clipPath id="clip463"><path d="M-367.526,-546.167 L4505.39,-546.167 L4505.39,1164.88 L-367.526,1164.88 L-367.526,-546.167 z"/></clipPath></defs><g clip-path="url(#clip463)" fill="none" opacity="0.75" stroke="#000000" stroke-linecap="butt" stroke-linejoin="miter" stroke-miterlimit="2" stroke-opacity="1" stroke-width="1" transform="matrix(0.111628,0,0,0.111628,41.0262,60.9674)"><path d="M7,0 L23,0 C26.866,0 30,3.13401 30,7 C30,10.866 26.866,14 23,14 L7,14 C3.13401,14 0,10.866 0,7 C0,3.13401 3.13401,0 7,0 z" fill-rule="nonzero" vector-effect="none"/></g><defs><clipPath id="clip467"><path d="M-182.526,-535.167 L4690.39,-535.167 L4690.39,1175.88 L-182.526,1175.88 L-182.526,-535.167 z"/></clipPath></defs><g clip-path="url(#clip467)" fill="#ffffff" fill-opacity="1" opacity="0.75" stroke="none" stroke-opacity="0" transform="matrix(0.111628,0,0,0.111628,20.375,59.7395)"><path d="M0,0 L20,0 L20,16 L0,16 L0,0 z" fill-rule="evenodd" vector-effect="none"/></g><defs><clipPath id="clip468"><path d="M-182.526,-535.167 L4690.39,-535.167 L4690.39,1175.88 L-182.526,1175.88 L-182.526,-535.167 z"/></clipPath></defs><g clip-path="url(#clip468)" fill="none" opacity="0.75" stroke="#000000" stroke-linecap="butt" stroke-linejoin="miter" stroke-miterlimit="2" stroke-opacity="1" stroke-width="1" transform="matrix(0.111628,0,0,0.111628,20.375,59.7395)"><path d="M0,0 L20,0 L20,16 L0,16 L0,0 z" fill-rule="evenodd" vector-effect="none"/></g><defs><clipPath id="clip471"><path d="M-182.526,-555.167 L4690.39,-555.167 L4690.39,1155.88 L-182.526,1155.88 L-182.526,-555.167 z"/></clipPath></defs><g clip-path="url(#clip471)" fill="#ffffff" fill-opacity="1" opacity="0.75" stroke="none" stroke-opacity="0" transform="matrix(0.111628,0,0,0.111628,20.375,61.9721)"><path d="M0,0 L20,0 L20,16 L0,16 L0,0 z" fill-rule="evenodd" vector-effect="none"/></g><defs><clipPath id="clip472"><path d="M-182.526,-555.167 L4690.39,-555.167 L4690.39,1155.88 L-182.526,1155.88 L-182.526,-555.167 z"/></clipPath></defs><g clip-path="url(#clip472)" fill="none" opacity="0.75" stroke="#000000" stroke-linecap="butt" stroke-linejoin="miter" stroke-miterlimit="2" stroke-opacity="1" stroke-width="1" transform="matrix(0.111628,0,0,0.111628,20.375,61.9721)"><path d="M0,0 L20,0 L20,16 L0,16 L0,0 z" fill-rule="evenodd" vector-effect="none"/></g><defs><clipPath id="clip475"><path d="M-182.526,-575.167 L4690.39,-575.167 L4690.39,1135.88 L-182.526,1135.88 L-182.526,-575.167 z"/></clipPath></defs><g clip-path="url(#clip475)" fill="#ffffff" fill-opacity="1" opacity="0.75" stroke="none" stroke-opacity="0" transform="matrix(0.111628,0,0,0.111628,20.375,64.2047)"><path d="M0,0 L20,0 L20,16 L0,16 L0,0 z" fill-rule="evenodd" vector-effect="none"/></g><defs><clipPath id="clip476"><path d="M-182.526,-575.167 L4690.39,-575.167 L4690.39,1135.88 L-182.526,1135.88 L-182.526,-575.167 z"/></clipPath></defs><g clip-path="url(#clip476)" fill="none" opacity="0.75" stroke="#000000" stroke-linecap="butt" stroke-linejoin="miter" stroke-miterlimit="2" stroke-opacity="1" stroke-width="1" transform="matrix(0.111628,0,0,0.111628,20.375,64.2047)"><path d="M0,0 L20,0 L20,16 L0,16 L0,0 z" fill-rule="evenodd" vector-effect="none"/></g><defs><clipPath id="clip479"><path d="M-182.526,-513.167 L4690.39,-513.167 L4690.39,1197.88 L-182.526,1197.88 L-182.526,-513.167 z"/></clipPath></defs><g clip-path="url(#clip479)" fill="#ffffff" fill-opacity="1" opacity="0.75" stroke="none" stroke-opacity="0" transform="matrix(0.111628,0,0,0.111628,20.375,57.2837)"><path d="M0,0 L20,0 L20,20 L0,20 L0,0 z" fill-rule="evenodd" vector-effect="none"/></g><defs><clipPath id="clip480"><path d="M-182.526,-513.167 L4690.39,-513.167 L4690.39,1197.88 L-182.526,1197.88 L-182.526,-513.167 z"/></clipPath></defs><g clip-path="url(#clip480)" fill="none" opacity="0.75" stroke="#000000" stroke-linecap="butt" stroke-linejoin="miter" stroke-miterlimit="2" stroke-opacity="1" stroke-width="1" transform="matrix(0.111628,0,0,0.111628,20.375,57.2837)"><path d="M0,0 L20,0 L20,20 L0,20 L0,0 z" fill-rule="evenodd" vector-effect="none"/></g><defs><clipPath id="clip485"><path d="M-367.526,-553.167 L4505.39,-553.167 L4505.39,1157.88 L-367.526,1157.88 L-367.526,-553.167 z"/></clipPath></defs><g clip-path="url(#clip485)" fill="#000000" fill-opacity="1" opacity="0.75" stroke="none" stroke-opacity="0" transform="matrix(0.111628,0,0,0.111628,41.0262,61.7488)"><path d="M0,0 L-8,-4 L-8,4 L0,0 z" fill-rule="nonzero" vector-effect="none"/></g><defs><clipPath id="clip487"><path d="M-117.526,-503.167 L4755.39,-503.167 L4755.39,1207.88 L-117.526,1207.88 L-117.526,-503.167 z"/></clipPath></defs><g clip-path="url(#clip487)" fill="none" opacity="0.75" stroke="#000000" stroke-linecap="butt" stroke-linejoin="miter" stroke-miterlimit="2" stroke-opacity="1" stroke-width="1" transform="matrix(0.111628,0,0,0.111628,13.1192,56.1674)"><path d="M185,50 L242,50" fill-rule="evenodd" vector-effect="none"/></g><defs><clipPath id="clip493"><path d="M-297.526,-543.167 L4575.39,-543.167 L4575.39,1167.88 L-297.526,1167.88 L-297.526,-543.167 z"/></clipPath></defs><g clip-path="url(#clip493)" fill="#000000" fill-opacity="1" opacity="0.75" stroke="none" stroke-opacity="0" transform="matrix(0.111628,0,0,0.111628,33.2122,60.6326)"><path d="M0,0 L-8,-4 L-8,4 L0,0 z" fill-rule="nonzero" vector-effect="none"/></g><defs><clipPath id="clip495"><path d="M-117.526,-503.167 L4755.39,-503.167 L4755.39,1207.88 L-117.526,1207.88 L-117.526,-503.167 z"/></clipPath></defs><g clip-path="url(#clip495)" fill="none" opacity="0.75" stroke="#000000" stroke-linecap="butt" stroke-linejoin="miter" stroke-miterlimit="2" stroke-opacity="1" stroke-width="1" transform="matrix(0.111628,0,0,0.111628,13.1192,56.1674)"><path d="M85,40 L172,40" fill-rule="evenodd" vector-effect="none"/></g><defs><clipPath id="clip501"><path d="M-297.526,-563.167 L4575.39,-563.167 L4575.39,1147.88 L-297.526,1147.88 L-297.526,-563.167 z"/></clipPath></defs><g clip-path="url(#clip501)" fill="#000000" fill-opacity="1" opacity="0.75" stroke="none" stroke-opacity="0" transform="matrix(0.111628,0,0,0.111628,33.2122,62.8651)"><path d="M0,0 L-8,-4 L-8,4 L0,0 z" fill-rule="nonzero" vector-effect="none"/></g><defs><clipPath id="clip503"><path d="M-117.526,-503.167 L4755.39,-503.167 L4755.39,1207.88 L-117.526,1207.88 L-117.526,-503.167 z"/></clipPath></defs><g clip-path="url(#clip503)" fill="none" opacity="0.75" stroke="#000000" stroke-linecap="butt" stroke-linejoin="miter" stroke-miterlimit="2" stroke-opacity="1" stroke-width="1" transform="matrix(0.111628,0,0,0.111628,13.1192,56.1674)"><path d="M85,60 L172,60" fill-rule="evenodd" vector-effect="none"/></g><defs><clipPath id="clip509"><path d="M-297.526,-583.167 L4575.39,-583.167 L4575.39,1127.88 L-297.526,1127.88 L-297.526,-583.167 z"/></clipPath></defs><g clip-path="url(#clip509)" fill="#000000" fill-opacity="1" opacity="0.75" stroke="none" stroke-opacity="0" transform="matrix(0.111628,0,0,0.111628,33.2122,65.0977)"><path d="M0,0 L-8,-4 L-8,4 L0,0 z" fill-rule="nonzero" vector-effect="none"/></g><defs><clipPath id="clip511"><path d="M-117.526,-503.167 L4755.39,-503.167 L4755.39,1207.88 L-117.526,1207.88 L-117.526,-503.167 z"/></clipPath></defs><g clip-path="url(#clip511)" fill="none" opacity="0.75" stroke="#000000" stroke-linecap="butt" stroke-linejoin="miter" stroke-miterlimit="2" stroke-opacity="1" stroke-width="1" transform="matrix(0.111628,0,0,0.111628,13.1192,56.1674)"><path d="M85,80 L172,80" fill-rule="evenodd" vector-effect="none"/></g><defs><clipPath id="clip517"><path d="M-297.526,-523.167 L4575.39,-523.167 L4575.39,1187.88 L-297.526,1187.88 L-297.526,-523.167 z"/></clipPath></defs><g clip-path="url(#clip517)" fill="#000000" fill-opacity="1" opacity="0.75" stroke="none" stroke-opacity="0" transform="matrix(0.111628,0,0,0.111628,33.2122,58.4)"><path d="M0,0 L-8,-4 L-8,4 L0,0 z" fill-rule="nonzero" vector-effect="none"/></g><defs><clipPath id="clip519"><path d="M-117.526,-503.167 L4755.39,-503.167 L4755.39,1207.88 L-117.526,1207.88 L-117.526,-503.167 z"/></clipPath></defs><g clip-path="url(#clip519)" fill="none" opacity="0.75" stroke="#000000" stroke-linecap="butt" stroke-linejoin="miter" stroke-miterlimit="2" stroke-opacity="1" stroke-width="1" transform="matrix(0.111628,0,0,0.111628,13.1192,56.1674)"><path d="M85,20 L172,20" fill-rule="evenodd" vector-effect="none"/></g><defs><clipPath id="clip527"><path d="M-27,-8 L3,-8 L3,8 L-27,8 L-27,-8 z"/></clipPath></defs><g clip-path="url(#clip527)" fill="none" opacity="1" stroke="#000000" stroke-linecap="butt" stroke-linejoin="miter" stroke-miterlimit="2" stroke-opacity="1" stroke-width="1" transform="matrix(1,0,0,1,44,62)"><text fill="#000000" fill-opacity="1" font-family="Liberation Sans" font-size="9" font-style="normal" font-weight="400" stroke="none" textLength="24" x="-24" xml:space="preserve" y="3.5">x_des</text></g><defs><clipPath id="clip532"><path d="M-17.5,-54.5 L526.453,-54.5 L526.453,136.5 L-17.5,136.5 L-17.5,-54.5 z"/></clipPath></defs><g clip-path="url(#clip532)" fill="none" opacity="1" stroke="#000000" stroke-linecap="butt" stroke-linejoin="miter" stroke-miterlimit="2" stroke-opacity="1" stroke-width="1" transform="matrix(1,0,0,1,17.5,54.5)"><path d="M0,0 L30,0 L30,16 L0,16 L0,0 z" fill-rule="evenodd" vector-effect="none"/></g><defs><clipPath id="clip537"><path d="M322.625,123 L866.578,123 L866.578,314 L322.625,314 L322.625,123 z"/></clipPath></defs><g clip-path="url(#clip537)" fill="none" opacity="1" stroke="#000000" stroke-linecap="butt" stroke-linejoin="miter" stroke-miterlimit="2" stroke-opacity="1" stroke-width="1" transform="matrix(1,0,0,1,-322.625,-123)"><path d="M685.125,175.5 L705.125,175.5" fill-rule="evenodd" vector-effect="none"/></g><defs><clipPath id="clip540"><path d="M142.375,-72.375 L142.375,471.578 L-48.625,471.578 L-48.625,-72.375 L142.375,-72.375 z"/></clipPath></defs><g clip-path="url(#clip540)" fill="#000000" fill-opacity="1" opacity="1" stroke="none" stroke-opacity="0" transform="matrix(6.12323e-17,-1,1,6.12323e-17,72.375,142.375)"><path d="M0,0 L-8,-4 L-8,4 L0,0 z" fill-rule="nonzero" vector-effect="none"/></g><defs><clipPath id="clip543"><path d="M322.625,123 L866.578,123 L866.578,314 L322.625,314 L322.625,123 z"/></clipPath></defs><g clip-path="url(#clip543)" fill="none" opacity="1" stroke="#000000" stroke-linecap="butt" stroke-linejoin="miter" stroke-miterlimit="2" stroke-opacity="1" stroke-width="1" transform="matrix(1,0,0,1,-322.625,-123)"><path d="M705.125,175.5 L705.125,256 M705.125,265 L705.125,312.5 L395.125,312.5 L395.125,273.5" fill-rule="evenodd" vector-effect="none"/></g><defs><clipPath id="clip544"><path d="M322.625,123 L866.578,123 L866.578,314 L322.625,314 L322.625,123 z"/></clipPath></defs><g clip-path="url(#clip544)" fill="none" opacity="1" stroke="#000000" stroke-linecap="butt" stroke-linejoin="miter" stroke-miterlimit="2" stroke-opacity="1" stroke-width="1" transform="matrix(1,0,0,1,-322.625,-123)"><path d="M705.125,256 C710.125,256 710.125,265 705.125,265" fill-rule="evenodd" vector-effect="none"/></g><defs><clipPath id="clip550"><path d="M0,0 L20,0 L20,13 L0,13 L0,0 z"/></clipPath></defs><g clip-path="url(#clip550)" fill="none" opacity="1" stroke="#000000" stroke-linecap="square" stroke-linejoin="bevel" stroke-opacity="1" stroke-width="1" transform="matrix(1,0,0,1,50.4062,157)"><text fill="#000000" fill-opacity="1" font-family="Liberation Sans" font-size="9" font-style="normal" font-weight="400" stroke="none" textLength="18.4688" x="1" xml:space="preserve" y="10">x_lin</text></g><defs><clipPath id="clip558"><path d="M-432,-52 L111.953,-52 L111.953,139 L-432,139 L-432,-52 z"/></clipPath></defs><g clip-path="url(#clip558)" fill="#000000" fill-opacity="1" opacity="1" stroke="none" stroke-opacity="0" transform="matrix(1,0,0,1,432,52)"><path d="M0,0 L-8,-4 L-8,4 L0,0 z" fill-rule="nonzero" vector-effect="none"/></g><defs><clipPath id="clip561"><path d="M322.625,123 L866.578,123 L866.578,314 L322.625,314 L322.625,123 z"/></clipPath></defs><g clip-path="url(#clip561)" fill="none" opacity="1" stroke="#000000" stroke-linecap="butt" stroke-linejoin="miter" stroke-miterlimit="2" stroke-opacity="1" stroke-width="1" transform="matrix(1,0,0,1,-322.625,-123)"><path d="M705.125,175.5 L747.125,175.5" fill-rule="evenodd" vector-effect="none"/></g><defs><clipPath id="clip567"><path d="M0,0 L20,0 L20,13 L0,13 L0,0 z"/></clipPath></defs><g clip-path="url(#clip567)" fill="none" opacity="1" stroke="#000000" stroke-linecap="square" stroke-linejoin="bevel" stroke-opacity="1" stroke-width="1" transform="matrix(1,0,0,1,396.906,53.5)"><text fill="#000000" fill-opacity="1" font-family="Liberation Sans" font-size="9" font-style="normal" font-weight="400" stroke="none" textLength="18.4688" x="1" xml:space="preserve" y="10">x_lin</text></g><defs><clipPath id="clip575"><path d="M-382.375,-52 L161.578,-52 L161.578,139 L-382.375,139 L-382.375,-52 z"/></clipPath></defs><g clip-path="url(#clip575)" fill="#000000" fill-opacity="1" opacity="1" stroke="none" stroke-opacity="0" transform="matrix(1,0,0,1,382.375,52)"><path d="M2.625,0.5 C2.625,1.88071 1.50571,3 0.125,3 C-1.25571,3 -2.375,1.88071 -2.375,0.5 C-2.375,-0.880712 -1.25571,-2 0.125,-2 C1.50571,-2 2.625,-0.880712 2.625,0.5 z" fill-rule="evenodd" vector-effect="none"/></g><defs><clipPath id="clip578"><path d="M-117,-62 L426.953,-62 L426.953,129 L-117,129 L-117,-62 z"/></clipPath></defs><g clip-path="url(#clip578)" fill="#000000" fill-opacity="1" opacity="1" stroke="none" stroke-opacity="0" transform="matrix(1,0,0,1,117,62)"><path d="M0,0 L-8,-4 L-8,4 L0,0 z" fill-rule="nonzero" vector-effect="none"/></g><defs><clipPath id="clip581"><path d="M322.625,123 L866.578,123 L866.578,314 L322.625,314 L322.625,123 z"/></clipPath></defs><g clip-path="url(#clip581)" fill="none" opacity="1" stroke="#000000" stroke-linecap="butt" stroke-linejoin="miter" stroke-miterlimit="2" stroke-opacity="1" stroke-width="1" transform="matrix(1,0,0,1,-322.625,-123)"><path d="M415.125,185.5 L432.125,185.5" fill-rule="evenodd" vector-effect="none"/></g><defs><clipPath id="clip586"><path d="M322.625,123 L866.578,123 L866.578,314 L322.625,314 L322.625,123 z"/></clipPath></defs><g clip-path="url(#clip586)" fill="none" opacity="1" stroke="#000000" stroke-linecap="butt" stroke-linejoin="miter" stroke-miterlimit="2" stroke-opacity="1" stroke-width="1" transform="matrix(1,0,0,1,-322.625,-123)"><path d="M545.125,175.5 L595.125,175.5" fill-rule="evenodd" vector-effect="none"/></g><defs><clipPath id="clip592"><path d="M0,0 L7,0 L7,13 L0,13 L0,0 z"/></clipPath></defs><g clip-path="url(#clip592)" fill="none" opacity="1" stroke="#000000" stroke-linecap="square" stroke-linejoin="bevel" stroke-opacity="1" stroke-width="1" transform="matrix(1,0,0,1,246.375,37.5)"><text fill="#000000" fill-opacity="1" font-family="Liberation Sans" font-size="9" font-style="normal" font-weight="400" stroke="none" textLength="5" x="1" xml:space="preserve" y="10">u</text></g><defs><clipPath id="clip600"><path d="M332.75,112 L-211.203,112 L-211.203,-79 L332.75,-79 L332.75,112 z"/></clipPath></defs><g clip-path="url(#clip600)" fill="#000000" fill-opacity="1" opacity="1" stroke="none" stroke-opacity="0" transform="matrix(-1,1.22465e-16,-1.22465e-16,-1,332.75,112)"><path d="M0,0 L-8,-4 L-8,4 L0,0 z" fill-rule="nonzero" vector-effect="none"/></g><defs><clipPath id="clip603"><path d="M322.625,123 L866.578,123 L866.578,314 L322.625,314 L322.625,123 z"/></clipPath></defs><g clip-path="url(#clip603)" fill="none" opacity="1" stroke="#000000" stroke-linecap="butt" stroke-linejoin="miter" stroke-miterlimit="2" stroke-opacity="1" stroke-width="1" transform="matrix(1,0,0,1,-322.625,-123)"><path d="M595.125,175.5 L595.125,212.5 L679.125,212.5 L679.125,235.5 L663.125,235.5" fill-rule="evenodd" vector-effect="none"/></g><defs><clipPath id="clip606"><path d="M-302,-52 L241.953,-52 L241.953,139 L-302,139 L-302,-52 z"/></clipPath></defs><g clip-path="url(#clip606)" fill="#000000" fill-opacity="1" opacity="1" stroke="none" stroke-opacity="0" transform="matrix(1,0,0,1,302,52)"><path d="M0,0 L-8,-4 L-8,4 L0,0 z" fill-rule="nonzero" vector-effect="none"/></g><defs><clipPath id="clip609"><path d="M322.625,123 L866.578,123 L866.578,314 L322.625,314 L322.625,123 z"/></clipPath></defs><g clip-path="url(#clip609)" fill="none" opacity="1" stroke="#000000" stroke-linecap="butt" stroke-linejoin="miter" stroke-miterlimit="2" stroke-opacity="1" stroke-width="1" transform="matrix(1,0,0,1,-322.625,-123)"><path d="M595.125,175.5 L617.125,175.5" fill-rule="evenodd" vector-effect="none"/></g><defs><clipPath id="clip612"><path d="M-272.375,-52 L271.578,-52 L271.578,139 L-272.375,139 L-272.375,-52 z"/></clipPath></defs><g clip-path="url(#clip612)" fill="#000000" fill-opacity="1" opacity="1" stroke="none" stroke-opacity="0" transform="matrix(1,0,0,1,272.375,52)"><path d="M2.625,0.5 C2.625,1.88071 1.50571,3 0.125,3 C-1.25571,3 -2.375,1.88071 -2.375,0.5 C-2.375,-0.880712 -1.25571,-2 0.125,-2 C1.50571,-2 2.625,-0.880712 2.625,0.5 z" fill-rule="evenodd" vector-effect="none"/></g><defs><clipPath id="clip615"><path d="M-192,-62 L351.953,-62 L351.953,129 L-192,129 L-192,-62 z"/></clipPath></defs><g clip-path="url(#clip615)" fill="#000000" fill-opacity="1" opacity="1" stroke="none" stroke-opacity="0" transform="matrix(1,0,0,1,192,62)"><path d="M0,0 L-8,-4 L-8,4 L0,0 z" fill-rule="nonzero" vector-effect="none"/></g><defs><clipPath id="clip618"><path d="M322.625,123 L866.578,123 L866.578,314 L322.625,314 L322.625,123 z"/></clipPath></defs><g clip-path="url(#clip618)" fill="none" opacity="1" stroke="#000000" stroke-linecap="butt" stroke-linejoin="miter" stroke-miterlimit="2" stroke-opacity="1" stroke-width="1" transform="matrix(1,0,0,1,-322.625,-123)"><path d="M490.125,185.5 L507.125,185.5" fill-rule="evenodd" vector-effect="none"/></g><defs><clipPath id="clip621"><path d="M-192,-42 L351.953,-42 L351.953,149 L-192,149 L-192,-42 z"/></clipPath></defs><g clip-path="url(#clip621)" fill="#000000" fill-opacity="1" opacity="1" stroke="none" stroke-opacity="0" transform="matrix(1,0,0,1,192,42)"><path d="M0,0 L-8,-4 L-8,4 L0,0 z" fill-rule="nonzero" vector-effect="none"/></g><defs><clipPath id="clip624"><path d="M322.625,123 L866.578,123 L866.578,314 L322.625,314 L322.625,123 z"/></clipPath></defs><g clip-path="url(#clip624)" fill="none" opacity="1" stroke="#000000" stroke-linecap="butt" stroke-linejoin="miter" stroke-miterlimit="2" stroke-opacity="1" stroke-width="1" transform="matrix(1,0,0,1,-322.625,-123)"><path d="M490.125,140.5 L490.125,165.5 L507.125,165.5" fill-rule="evenodd" vector-effect="none"/></g><defs><clipPath id="clip630"><path d="M0,0 L44,0 L44,13 L0,13 L0,0 z"/></clipPath></defs><g clip-path="url(#clip630)" fill="none" opacity="1" stroke="#000000" stroke-linecap="square" stroke-linejoin="bevel" stroke-opacity="1" stroke-width="1" transform="matrix(1,0,0,1,168.875,22)"><text fill="#000000" fill-opacity="1" font-family="Liberation Sans" font-size="9" font-style="normal" font-weight="400" stroke="none" textLength="41.9688" x="1" xml:space="preserve" y="10">no_control</text></g><defs><clipPath id="clip638"><path d="M242.75,127 L-301.203,127 L-301.203,-64 L242.75,-64 L242.75,127 z"/></clipPath></defs><g clip-path="url(#clip638)" fill="#000000" fill-opacity="1" opacity="1" stroke="none" stroke-opacity="0" transform="matrix(-1,1.22465e-16,-1.22465e-16,-1,242.75,127)"><path d="M0,0 L-8,-4 L-8,4 L0,0 z" fill-rule="nonzero" vector-effect="none"/></g><defs><clipPath id="clip641"><path d="M322.625,123 L866.578,123 L866.578,314 L322.625,314 L322.625,123 z"/></clipPath></defs><g clip-path="url(#clip641)" fill="none" opacity="1" stroke="#000000" stroke-linecap="butt" stroke-linejoin="miter" stroke-miterlimit="2" stroke-opacity="1" stroke-width="1" transform="matrix(1,0,0,1,-322.625,-123)"><path d="M585.125,250.5 L573.125,250.5" fill-rule="evenodd" vector-effect="none"/></g><defs><clipPath id="clip646"><path d="M322.625,123 L866.578,123 L866.578,314 L322.625,314 L322.625,123 z"/></clipPath></defs><g clip-path="url(#clip646)" fill="none" opacity="1" stroke="#000000" stroke-linecap="butt" stroke-linejoin="miter" stroke-miterlimit="2" stroke-opacity="1" stroke-width="1" transform="matrix(1,0,0,1,-322.625,-123)"><path d="M535.125,250.5 L518.125,250.5 L518.125,300.5" fill-rule="evenodd" vector-effect="none"/></g><defs><clipPath id="clip649"><path d="M332.75,137 L-211.203,137 L-211.203,-54 L332.75,-54 L332.75,137 z"/></clipPath></defs><g clip-path="url(#clip649)" fill="#000000" fill-opacity="1" opacity="1" stroke="none" stroke-opacity="0" transform="matrix(-1,1.22465e-16,-1.22465e-16,-1,332.75,137)"><path d="M0,0 L-8,-4 L-8,4 L0,0 z" fill-rule="nonzero" vector-effect="none"/></g><defs><clipPath id="clip652"><path d="M322.625,123 L866.578,123 L866.578,314 L322.625,314 L322.625,123 z"/></clipPath></defs><g clip-path="url(#clip652)" fill="none" opacity="1" stroke="#000000" stroke-linecap="butt" stroke-linejoin="miter" stroke-miterlimit="2" stroke-opacity="1" stroke-width="1" transform="matrix(1,0,0,1,-322.625,-123)"><path d="M683.125,260.5 L663.125,260.5" fill-rule="evenodd" vector-effect="none"/></g><defs><clipPath id="clip655"><path d="M-432,-137 L111.953,-137 L111.953,54 L-432,54 L-432,-137 z"/></clipPath></defs><g clip-path="url(#clip655)" fill="#000000" fill-opacity="1" opacity="1" stroke="none" stroke-opacity="0" transform="matrix(1,0,0,1,432,137)"><path d="M0,0 L-8,-4 L-8,4 L0,0 z" fill-rule="nonzero" vector-effect="none"/></g><defs><clipPath id="clip658"><path d="M322.625,123 L866.578,123 L866.578,314 L322.625,314 L322.625,123 z"/></clipPath></defs><g clip-path="url(#clip658)" fill="none" opacity="1" stroke="#000000" stroke-linecap="butt" stroke-linejoin="miter" stroke-miterlimit="2" stroke-opacity="1" stroke-width="1" transform="matrix(1,0,0,1,-322.625,-123)"><path d="M683.125,260.5 L708.792,260.5 M709.792,260.5 L747.125,260.5" fill-rule="evenodd" vector-effect="none"/></g><defs><clipPath id="clip664"><path d="M0,0 L18,0 L18,13 L0,13 L0,0 z"/></clipPath></defs><g clip-path="url(#clip664)" fill="none" opacity="1" stroke="#000000" stroke-linecap="square" stroke-linejoin="bevel" stroke-opacity="1" stroke-width="1" transform="matrix(1,0,0,1,398.891,138.5)"><text fill="#000000" fill-opacity="1" font-family="Liberation Sans" font-size="9" font-style="normal" font-weight="400" stroke="none" textLength="16.4844" x="1" xml:space="preserve" y="10">x_nl</text></g><defs><clipPath id="clip672"><path d="M142.375,-92.375 L142.375,451.578 L-48.625,451.578 L-48.625,-92.375 L142.375,-92.375 z"/></clipPath></defs><g clip-path="url(#clip672)" fill="#000000" fill-opacity="1" opacity="1" stroke="none" stroke-opacity="0" transform="matrix(6.12323e-17,-1,1,6.12323e-17,92.375,142.375)"><path d="M0,0 L-8,-4 L-8,4 L0,0 z" fill-rule="nonzero" vector-effect="none"/></g><defs><clipPath id="clip675"><path d="M322.625,123 L866.578,123 L866.578,314 L322.625,314 L322.625,123 z"/></clipPath></defs><g clip-path="url(#clip675)" fill="none" opacity="1" stroke="#000000" stroke-linecap="butt" stroke-linejoin="miter" stroke-miterlimit="2" stroke-opacity="1" stroke-width="1" transform="matrix(1,0,0,1,-322.625,-123)"><path d="M518.125,300.5 L415.125,300.5 L415.125,273.5" fill-rule="evenodd" vector-effect="none"/></g><defs><clipPath id="clip681"><path d="M0,0 L18,0 L18,13 L0,13 L0,0 z"/></clipPath></defs><g clip-path="url(#clip681)" fill="none" opacity="1" stroke="#000000" stroke-linecap="square" stroke-linejoin="bevel" stroke-opacity="1" stroke-width="1" transform="matrix(1,0,0,1,93.875,157)"><text fill="#000000" fill-opacity="1" font-family="Liberation Sans" font-size="9" font-style="normal" font-weight="400" stroke="none" textLength="16.4844" x="1" xml:space="preserve" y="10">x_nl</text></g><defs><clipPath id="clip691"><path d="M322.625,123 L866.578,123 L866.578,314 L322.625,314 L322.625,123 z"/></clipPath></defs><g clip-path="url(#clip691)" fill="none" opacity="1" stroke="#000000" stroke-linecap="butt" stroke-linejoin="miter" stroke-miterlimit="2" stroke-opacity="1" stroke-width="1" transform="matrix(1,0,0,1,-322.625,-123)"><path d="M518.125,300.5 L683.125,300.5 L683.125,260.5" fill-rule="evenodd" vector-effect="none"/></g><defs><clipPath id="clip694"><path d="M-195.375,-177 L348.578,-177 L348.578,14 L-195.375,14 L-195.375,-177 z"/></clipPath></defs><g clip-path="url(#clip694)" fill="#000000" fill-opacity="1" opacity="1" stroke="none" stroke-opacity="0" transform="matrix(1,0,0,1,195.375,177)"><path d="M2.625,0.5 C2.625,1.88071 1.50571,3 0.125,3 C-1.25571,3 -2.375,1.88071 -2.375,0.5 C-2.375,-0.880712 -1.25571,-2 0.125,-2 C1.50571,-2 2.625,-0.880712 2.625,0.5 z" fill-rule="evenodd" vector-effect="none"/></g><defs><clipPath id="clip697"><path d="M-360.375,-137 L183.578,-137 L183.578,54 L-360.375,54 L-360.375,-137 z"/></clipPath></defs><g clip-path="url(#clip697)" fill="#000000" fill-opacity="1" opacity="1" stroke="none" stroke-opacity="0" transform="matrix(1,0,0,1,360.375,137)"><path d="M2.625,0.5 C2.625,1.88071 1.50571,3 0.125,3 C-1.25571,3 -2.375,1.88071 -2.375,0.5 C-2.375,-0.880712 -1.25571,-2 0.125,-2 C1.50571,-2 2.625,-0.880712 2.625,0.5 z" fill-rule="evenodd" vector-effect="none"/></g><defs><clipPath id="clip700"><path d="M72.375,-82.375 L72.375,461.578 L-118.625,461.578 L-118.625,-82.375 L72.375,-82.375 z"/></clipPath></defs><g clip-path="url(#clip700)" fill="#000000" fill-opacity="1" opacity="1" stroke="none" stroke-opacity="0" transform="matrix(6.12323e-17,-1,1,6.12323e-17,82.375,72.375)"><path d="M0,0 L-8,-4 L-8,4 L0,0 z" fill-rule="nonzero" vector-effect="none"/></g><defs><clipPath id="clip703"><path d="M322.625,123 L866.578,123 L866.578,314 L322.625,314 L322.625,123 z"/></clipPath></defs><g clip-path="url(#clip703)" fill="none" opacity="1" stroke="#000000" stroke-linecap="butt" stroke-linejoin="miter" stroke-miterlimit="2" stroke-opacity="1" stroke-width="1" transform="matrix(1,0,0,1,-322.625,-123)"><path d="M405.125,235.5 L405.125,203.5" fill-rule="evenodd" vector-effect="none"/></g><defs><clipPath id="clip709"><path d="M0,0 L7,0 L7,13 L0,13 L0,0 z"/></clipPath></defs><g clip-path="url(#clip709)" fill="none" opacity="1" stroke="#000000" stroke-linecap="square" stroke-linejoin="bevel" stroke-opacity="1" stroke-width="1" transform="matrix(1,0,0,1,83.875,90.5)"><text fill="#000000" fill-opacity="1" font-family="Liberation Sans" font-size="9" font-style="normal" font-weight="400" stroke="none" textLength="4.5" x="1" xml:space="preserve" y="10">x</text></g><defs><clipPath id="clip717"><path d="M-502,-157 L41.9531,-157 L41.9531,34 L-502,34 L-502,-157 z"/></clipPath></defs><g clip-path="url(#clip717)" fill="#000000" fill-opacity="1" opacity="1" stroke="none" stroke-opacity="0" transform="matrix(1,0,0,1,502,157)"><path d="M0,0 L-8,-4 L-8,4 L0,0 z" fill-rule="nonzero" vector-effect="none"/></g><defs><clipPath id="clip720"><path d="M322.625,123 L866.578,123 L866.578,314 L322.625,314 L322.625,123 z"/></clipPath></defs><g clip-path="url(#clip720)" fill="none" opacity="1" stroke="#000000" stroke-linecap="butt" stroke-linejoin="miter" stroke-miterlimit="2" stroke-opacity="1" stroke-width="1" transform="matrix(1,0,0,1,-322.625,-123)"><path d="M760.125,280.5 L817.125,280.5" fill-rule="evenodd" vector-effect="none"/></g><defs><clipPath id="clip726"><path d="M0,0 L41,0 L41,13 L0,13 L0,0 z"/></clipPath></defs><g clip-path="url(#clip726)" fill="none" opacity="1" stroke="#000000" stroke-linecap="square" stroke-linejoin="bevel" stroke-opacity="1" stroke-width="1" transform="matrix(1,0,0,1,444.133,142.5)"><text fill="#000000" fill-opacity="1" font-family="Liberation Sans" font-size="9" font-style="normal" font-weight="400" stroke="none" textLength="39.4844" x="1" xml:space="preserve" y="10">alpha_dot</text></g><defs><clipPath id="clip734"><path d="M-502,-142 L41.9531,-142 L41.9531,49 L-502,49 L-502,-142 z"/></clipPath></defs><g clip-path="url(#clip734)" fill="#000000" fill-opacity="1" opacity="1" stroke="none" stroke-opacity="0" transform="matrix(1,0,0,1,502,142)"><path d="M0,0 L-8,-4 L-8,4 L0,0 z" fill-rule="nonzero" vector-effect="none"/></g><defs><clipPath id="clip737"><path d="M322.625,123 L866.578,123 L866.578,314 L322.625,314 L322.625,123 z"/></clipPath></defs><g clip-path="url(#clip737)" fill="none" opacity="1" stroke="#000000" stroke-linecap="butt" stroke-linejoin="miter" stroke-miterlimit="2" stroke-opacity="1" stroke-width="1" transform="matrix(1,0,0,1,-322.625,-123)"><path d="M760.125,265.5 L817.125,265.5" fill-rule="evenodd" vector-effect="none"/></g><defs><clipPath id="clip743"><path d="M0,0 L40,0 L40,13 L0,13 L0,0 z"/></clipPath></defs><g clip-path="url(#clip743)" fill="none" opacity="1" stroke="#000000" stroke-linecap="square" stroke-linejoin="bevel" stroke-opacity="1" stroke-width="1" transform="matrix(1,0,0,1,445.125,127.5)"><text fill="#000000" fill-opacity="1" font-family="Liberation Sans" font-size="9" font-style="normal" font-weight="400" stroke="none" textLength="37.5" x="1" xml:space="preserve" y="10">theta_dot</text></g><defs><clipPath id="clip751"><path d="M-502,-112 L41.9531,-112 L41.9531,79 L-502,79 L-502,-112 z"/></clipPath></defs><g clip-path="url(#clip751)" fill="#000000" fill-opacity="1" opacity="1" stroke="none" stroke-opacity="0" transform="matrix(1,0,0,1,502,112)"><path d="M0,0 L-8,-4 L-8,4 L0,0 z" fill-rule="nonzero" vector-effect="none"/></g><defs><clipPath id="clip754"><path d="M322.625,123 L866.578,123 L866.578,314 L322.625,314 L322.625,123 z"/></clipPath></defs><g clip-path="url(#clip754)" fill="none" opacity="1" stroke="#000000" stroke-linecap="butt" stroke-linejoin="miter" stroke-miterlimit="2" stroke-opacity="1" stroke-width="1" transform="matrix(1,0,0,1,-322.625,-123)"><path d="M760.125,235.5 L817.125,235.5" fill-rule="evenodd" vector-effect="none"/></g><defs><clipPath id="clip760"><path d="M0,0 L22,0 L22,13 L0,13 L0,0 z"/></clipPath></defs><g clip-path="url(#clip760)" fill="none" opacity="1" stroke="#000000" stroke-linecap="square" stroke-linejoin="bevel" stroke-opacity="1" stroke-width="1" transform="matrix(1,0,0,1,453.875,97.5)"><text fill="#000000" fill-opacity="1" font-family="Liberation Sans" font-size="9" font-style="normal" font-weight="400" stroke="none" textLength="20" x="1" xml:space="preserve" y="10">theta</text></g><defs><clipPath id="clip768"><path d="M-502,-127 L41.9531,-127 L41.9531,64 L-502,64 L-502,-127 z"/></clipPath></defs><g clip-path="url(#clip768)" fill="#000000" fill-opacity="1" opacity="1" stroke="none" stroke-opacity="0" transform="matrix(1,0,0,1,502,127)"><path d="M0,0 L-8,-4 L-8,4 L0,0 z" fill-rule="nonzero" vector-effect="none"/></g><defs><clipPath id="clip771"><path d="M322.625,123 L866.578,123 L866.578,314 L322.625,314 L322.625,123 z"/></clipPath></defs><g clip-path="url(#clip771)" fill="none" opacity="1" stroke="#000000" stroke-linecap="butt" stroke-linejoin="miter" stroke-miterlimit="2" stroke-opacity="1" stroke-width="1" transform="matrix(1,0,0,1,-322.625,-123)"><path d="M760.125,250.5 L817.125,250.5" fill-rule="evenodd" vector-effect="none"/></g><defs><clipPath id="clip777"><path d="M0,0 L24,0 L24,13 L0,13 L0,0 z"/></clipPath></defs><g clip-path="url(#clip777)" fill="none" opacity="1" stroke="#000000" stroke-linecap="square" stroke-linejoin="bevel" stroke-opacity="1" stroke-width="1" transform="matrix(1,0,0,1,452.883,112.5)"><text fill="#000000" fill-opacity="1" font-family="Liberation Sans" font-size="9" font-style="normal" font-weight="400" stroke="none" textLength="21.9844" x="1" xml:space="preserve" y="10">alpha</text></g><defs><clipPath id="clip785"><path d="M-502,-42 L41.9531,-42 L41.9531,149 L-502,149 L-502,-42 z"/></clipPath></defs><g clip-path="url(#clip785)" fill="#000000" fill-opacity="1" opacity="1" stroke="none" stroke-opacity="0" transform="matrix(1,0,0,1,502,42)"><path d="M0,0 L-8,-4 L-8,4 L0,0 z" fill-rule="nonzero" vector-effect="none"/></g><defs><clipPath id="clip788"><path d="M322.625,123 L866.578,123 L866.578,314 L322.625,314 L322.625,123 z"/></clipPath></defs><g clip-path="url(#clip788)" fill="none" opacity="1" stroke="#000000" stroke-linecap="butt" stroke-linejoin="miter" stroke-miterlimit="2" stroke-opacity="1" stroke-width="1" transform="matrix(1,0,0,1,-322.625,-123)"><path d="M760.125,165.5 L817.125,165.5" fill-rule="evenodd" vector-effect="none"/></g><defs><clipPath id="clip794"><path d="M0,0 L24,0 L24,13 L0,13 L0,0 z"/></clipPath></defs><g clip-path="url(#clip794)" fill="none" opacity="1" stroke="#000000" stroke-linecap="square" stroke-linejoin="bevel" stroke-opacity="1" stroke-width="1" transform="matrix(1,0,0,1,452.883,27.5)"><text fill="#000000" fill-opacity="1" font-family="Liberation Sans" font-size="9" font-style="normal" font-weight="400" stroke="none" textLength="21.9844" x="1" xml:space="preserve" y="10">alpha</text></g><defs><clipPath id="clip802"><path d="M-502,-57 L41.9531,-57 L41.9531,134 L-502,134 L-502,-57 z"/></clipPath></defs><g clip-path="url(#clip802)" fill="#000000" fill-opacity="1" opacity="1" stroke="none" stroke-opacity="0" transform="matrix(1,0,0,1,502,57)"><path d="M0,0 L-8,-4 L-8,4 L0,0 z" fill-rule="nonzero" vector-effect="none"/></g><defs><clipPath id="clip805"><path d="M322.625,123 L866.578,123 L866.578,314 L322.625,314 L322.625,123 z"/></clipPath></defs><g clip-path="url(#clip805)" fill="none" opacity="1" stroke="#000000" stroke-linecap="butt" stroke-linejoin="miter" stroke-miterlimit="2" stroke-opacity="1" stroke-width="1" transform="matrix(1,0,0,1,-322.625,-123)"><path d="M760.125,180.5 L817.125,180.5" fill-rule="evenodd" vector-effect="none"/></g><defs><clipPath id="clip811"><path d="M0,0 L40,0 L40,13 L0,13 L0,0 z"/></clipPath></defs><g clip-path="url(#clip811)" fill="none" opacity="1" stroke="#000000" stroke-linecap="square" stroke-linejoin="bevel" stroke-opacity="1" stroke-width="1" transform="matrix(1,0,0,1,445.125,42.5)"><text fill="#000000" fill-opacity="1" font-family="Liberation Sans" font-size="9" font-style="normal" font-weight="400" stroke="none" textLength="37.5" x="1" xml:space="preserve" y="10">theta_dot</text></g><defs><clipPath id="clip819"><path d="M-502,-72 L41.9531,-72 L41.9531,119 L-502,119 L-502,-72 z"/></clipPath></defs><g clip-path="url(#clip819)" fill="#000000" fill-opacity="1" opacity="1" stroke="none" stroke-opacity="0" transform="matrix(1,0,0,1,502,72)"><path d="M0,0 L-8,-4 L-8,4 L0,0 z" fill-rule="nonzero" vector-effect="none"/></g><defs><clipPath id="clip822"><path d="M322.625,123 L866.578,123 L866.578,314 L322.625,314 L322.625,123 z"/></clipPath></defs><g clip-path="url(#clip822)" fill="none" opacity="1" stroke="#000000" stroke-linecap="butt" stroke-linejoin="miter" stroke-miterlimit="2" stroke-opacity="1" stroke-width="1" transform="matrix(1,0,0,1,-322.625,-123)"><path d="M760.125,195.5 L817.125,195.5" fill-rule="evenodd" vector-effect="none"/></g><defs><clipPath id="clip828"><path d="M0,0 L41,0 L41,13 L0,13 L0,0 z"/></clipPath></defs><g clip-path="url(#clip828)" fill="none" opacity="1" stroke="#000000" stroke-linecap="square" stroke-linejoin="bevel" stroke-opacity="1" stroke-width="1" transform="matrix(1,0,0,1,444.133,57.5)"><text fill="#000000" fill-opacity="1" font-family="Liberation Sans" font-size="9" font-style="normal" font-weight="400" stroke="none" textLength="39.4844" x="1" xml:space="preserve" y="10">alpha_dot</text></g><defs><clipPath id="clip836"><path d="M-502,-27 L41.9531,-27 L41.9531,164 L-502,164 L-502,-27 z"/></clipPath></defs><g clip-path="url(#clip836)" fill="#000000" fill-opacity="1" opacity="1" stroke="none" stroke-opacity="0" transform="matrix(1,0,0,1,502,27)"><path d="M0,0 L-8,-4 L-8,4 L0,0 z" fill-rule="nonzero" vector-effect="none"/></g><defs><clipPath id="clip839"><path d="M322.625,123 L866.578,123 L866.578,314 L322.625,314 L322.625,123 z"/></clipPath></defs><g clip-path="url(#clip839)" fill="none" opacity="1" stroke="#000000" stroke-linecap="butt" stroke-linejoin="miter" stroke-miterlimit="2" stroke-opacity="1" stroke-width="1" transform="matrix(1,0,0,1,-322.625,-123)"><path d="M760.125,150.5 L817.125,150.5" fill-rule="evenodd" vector-effect="none"/></g><defs><clipPath id="clip845"><path d="M0,0 L22,0 L22,13 L0,13 L0,0 z"/></clipPath></defs><g clip-path="url(#clip845)" fill="none" opacity="1" stroke="#000000" stroke-linecap="square" stroke-linejoin="bevel" stroke-opacity="1" stroke-width="1" transform="matrix(1,0,0,1,453.875,12.5)"><text fill="#000000" fill-opacity="1" font-family="Liberation Sans" font-size="9" font-style="normal" font-weight="400" stroke="none" textLength="20" x="1" xml:space="preserve" y="10">theta</text></g><defs><clipPath id="clip853"><path d="M-72,-62 L471.953,-62 L471.953,129 L-72,129 L-72,-62 z"/></clipPath></defs><g clip-path="url(#clip853)" fill="#000000" fill-opacity="1" opacity="1" stroke="none" stroke-opacity="0" transform="matrix(1,0,0,1,72,62)"><path d="M0,0 L-8,-4 L-8,4 L0,0 z" fill-rule="nonzero" vector-effect="none"/></g><defs><clipPath id="clip856"><path d="M322.625,123 L866.578,123 L866.578,314 L322.625,314 L322.625,123 z"/></clipPath></defs><g clip-path="url(#clip856)" fill="none" opacity="1" stroke="#000000" stroke-linecap="butt" stroke-linejoin="miter" stroke-miterlimit="2" stroke-opacity="1" stroke-width="1" transform="matrix(1,0,0,1,-322.625,-123)"><path d="M370.125,185.5 L387.125,185.5" fill-rule="evenodd" vector-effect="none"/></g></g><!--generated on ubuntu @ 2021-06-04 16:49:50 CEST--></svg>
